<svg id="ic_ac" xmlns="http://www.w3.org/2000/svg" width="40" height="40" viewBox="0 0 40 40">
  <g id="noun_ac_2638720" transform="translate(4 4)">
    <g id="Grupo_10797" data-name="Grupo 10797">
      <path id="Trazado_81687" data-name="Trazado 81687" d="M11,16H21v3H11ZM30,6v9a4,4,0,0,1-4,4H23V15a1,1,0,0,0-1-1H10a1,1,0,0,0-1,1v4H6a4,4,0,0,1-4-4V6A4,4,0,0,1,6,2H26A4,4,0,0,1,30,6ZM15,12a1,1,0,0,0-1-1H13a1,1,0,0,0,0,2h1A1,1,0,0,0,15,12Zm5,0a1,1,0,0,0-1-1H18a1,1,0,0,0,0,2h1A1,1,0,0,0,20,12Zm5-3a1,1,0,0,0-1-1H8a1,1,0,0,0,0,2H24A1,1,0,0,0,25,9Zm0-3a1,1,0,0,0-1-1H8A1,1,0,0,0,8,7H24A1,1,0,0,0,25,6ZM16.65,29a1,1,0,0,1,.21-.65,3.13,3.13,0,0,0,0-3.36,1.13,1.13,0,0,1,0-1.31A2.91,2.91,0,0,0,17.35,22a1,1,0,0,0-2,0,1,1,0,0,1-.21.65,3.14,3.14,0,0,0,0,3.37,1.111,1.111,0,0,1,0,1.3A2.93,2.93,0,0,0,14.65,29a1,1,0,0,0,2,0Zm5,0a1,1,0,0,1,.21-.65,3.13,3.13,0,0,0,0-3.36,1.13,1.13,0,0,1,0-1.31A2.91,2.91,0,0,0,22.35,22a1,1,0,0,0-2,0,1,1,0,0,1-.21.65,3.14,3.14,0,0,0,0,3.37,1.111,1.111,0,0,1,0,1.3A2.93,2.93,0,0,0,19.65,29a1,1,0,0,0,2,0Zm-10,0a1,1,0,0,1,.21-.65,3.13,3.13,0,0,0,0-3.36,1.13,1.13,0,0,1,0-1.31A2.91,2.91,0,0,0,12.35,22a1,1,0,0,0-2,0,1,1,0,0,1-.21.65,3.14,3.14,0,0,0,0,3.37,1.111,1.111,0,0,1,0,1.3A2.93,2.93,0,0,0,9.65,29a1,1,0,1,0,2,0Z" fill="#1591da"/>
    </g>
  </g>
  <rect id="Rectángulo_8639" data-name="Rectángulo 8639" width="40" height="40" fill="none"/>
</svg>
