<svg id="ic_videobeam" xmlns="http://www.w3.org/2000/svg" width="40" height="40" viewBox="0 0 40 40">
  <g id="noun_Projector_138710_1_" data-name="noun_Projector_138710 (1)" transform="translate(-478.816 161.646)">
    <g id="Grupo_10798" data-name="Grupo 10798" transform="translate(269.818 -386.888)">
      <path id="Trazado_81688" data-name="Trazado 81688" d="M244.524,239.532h-6.447a6.447,6.447,0,0,0-7.737,0H213.416A2.418,2.418,0,0,0,211,241.949v5.481a2.418,2.418,0,0,0,2.418,2.418H230.34a6.447,6.447,0,0,0,7.737,0h6.447a2.418,2.418,0,0,0,2.418-2.418v-5.481A2.418,2.418,0,0,0,244.524,239.532Zm-19.987,7.737h-9.026a.645.645,0,1,1,0-1.289h9.026a.645.645,0,0,1,0,1.289Zm0-3.868h-9.026a.645.645,0,0,1,0-1.29h9.026a.645.645,0,0,1,0,1.29Zm9.671,6.447a5.158,5.158,0,1,1,5.158-5.158A5.158,5.158,0,0,1,234.209,249.847Z" fill="#1693da"/>
      <rect id="Rectángulo_8640" data-name="Rectángulo 8640" width="2.579" height="1.29" transform="translate(213.578 251.136)" fill="#1693da"/>
      <rect id="Rectángulo_8641" data-name="Rectángulo 8641" width="2.579" height="1.29" transform="translate(240.656 251.136)" fill="#1693da"/>
      <path id="Trazado_81689" data-name="Trazado 81689" d="M263.3,244.7a3.868,3.868,0,1,0,3.869,3.868A3.868,3.868,0,0,0,263.3,244.7Zm.169.927a3.12,3.12,0,0,0-3.117,3.117h-.242a3.362,3.362,0,0,1,3.359-3.358Z" transform="translate(-29.09 -3.879)" fill="#1693da"/>
    </g>
  </g>
  <rect id="Rectángulo_8642" data-name="Rectángulo 8642" width="40" height="40" fill="none" opacity="0.4"/>
</svg>
