<svg id="ic_wifi" xmlns="http://www.w3.org/2000/svg" width="40" height="40" viewBox="0 0 40 40">
  <g id="internet_1_" data-name="internet (1)" transform="translate(6 -54.992)">
    <path id="Trazado_81684" data-name="Trazado 81684" d="M130.584,240.724a.828.828,0,0,1,.142.978,2.225,2.225,0,0,1-3.261.738,7.544,7.544,0,0,0-8.962,0,2.226,2.226,0,0,1-3.26-.738.828.828,0,0,1,.142-.978A10.7,10.7,0,0,1,130.584,240.724Z" transform="translate(-108.734 -163.902)" fill="#1591da"/>
    <path id="Trazado_81685" data-name="Trazado 81685" d="M76.32,157.248a12.349,12.349,0,0,0-17.366,0,.837.837,0,0,1-.792.218,2.164,2.164,0,0,1-1.625-1.887.834.834,0,0,1,.249-.672,15.534,15.534,0,0,1,21.7,0,.834.834,0,0,1,.249.672,2.165,2.165,0,0,1-1.625,1.887A.837.837,0,0,1,76.32,157.248Z" transform="translate(-53.387 -81.681)" fill="#1591da"/>
    <path id="Trazado_81686" data-name="Trazado 81686" d="M27.86,72.114a2.513,2.513,0,0,1-.224.2.829.829,0,0,1-1.1-.077,17.26,17.26,0,0,0-24.58,0A.833.833,0,0,1,.84,72.3q-.081-.066-.157-.141a2.142,2.142,0,0,1,.068-3.2,20.835,20.835,0,0,1,27,0A2.143,2.143,0,0,1,27.86,72.114Z" transform="translate(0 0)" fill="#1591da"/>
    <circle id="Elipse_6235" data-name="Elipse 6235" cx="2.226" cy="2.226" r="2.226" transform="translate(12.024 80.915)" fill="#1591da"/>
  </g>
  <rect id="Rectángulo_8638" data-name="Rectángulo 8638" width="40" height="40" fill="none"/>
</svg>
