<svg xmlns="http://www.w3.org/2000/svg" width="30" height="30" viewBox="0 0 30 30">
  <g id="Grupo_18209" data-name="Grupo 18209" transform="translate(6408 6708)">
    <g id="correcto_1_" data-name="correcto (1)" transform="translate(-6404 -6704)">
      <path id="Trazado_82529" data-name="Trazado 82529" d="M11.135,0A11.135,11.135,0,1,0,22.27,11.135,11.147,11.147,0,0,0,11.135,0Zm0,0" fill="#fff"/>
      <path id="Trazado_82530" data-name="Trazado 82530" d="M151.959,166.912l-6.031,6.031a.927.927,0,0,1-1.312,0l-3.016-3.016a.928.928,0,0,1,1.312-1.312l2.36,2.36,5.375-5.375a.928.928,0,0,1,1.312,1.312Zm0,0" transform="translate(-135.181 -158.137)" fill="#00a3a1"/>
    </g>
    <rect id="Rectángulo_10437" data-name="Rectángulo 10437" width="30" height="30" transform="translate(-6408 -6708)" fill="none"/>
  </g>
</svg>
