<svg id="Componente_69_1" data-name="Componente 69 – 1" xmlns="http://www.w3.org/2000/svg" width="30" height="30" viewBox="0 0 30 30">
  <g id="noun_Image_2536960" transform="translate(4 4)">
    <g id="Grupo_11749" data-name="Grupo 11749">
      <path id="Trazado_82533" data-name="Trazado 82533" d="M11.328,9.5l1.614,1.452-.734.819L7.6,7.621,3.72,10.639v2.646H15.49V9.674L13.1,8.08Z" transform="translate(1.395 2.858)" fill="#fff"/>
      <path id="Trazado_82534" data-name="Trazado 82534" d="M3.72,10.505,7.288,7.731a.55.55,0,0,1,.705.025L10.5,10.012l2.227-1.781a.547.547,0,0,1,.649-.028l2.115,1.409V4.26H3.72ZM11.09,6.13a1.044,1.044,0,1,1-1.045,1.044A1.046,1.046,0,0,1,11.09,6.13Z" transform="translate(1.395 1.598)" fill="#fff"/>
      <path id="Trazado_82535" data-name="Trazado 82535" d="M9.095,6.34l-.055.055a.055.055,0,0,0,.055.056Z" transform="translate(3.39 2.377)" fill="#fff"/>
      <path id="Trazado_82536" data-name="Trazado 82536" d="M11,0A11,11,0,1,0,22,11,11,11,0,0,0,11,0Zm6.985,16.693a.55.55,0,0,1-.55.55H4.565a.55.55,0,0,1-.55-.55V5.307a.55.55,0,0,1,.55-.55h12.87a.55.55,0,0,1,.55.55V16.693Z" fill="#fff"/>
    </g>
  </g>
  <rect id="Rectángulo_10436" data-name="Rectángulo 10436" width="30" height="30" fill="none"/>
</svg>
