<svg xmlns="http://www.w3.org/2000/svg" width="176.977" height="156.615" viewBox="0 0 176.977 156.615">
  <g id="Grupo_18210" data-name="Grupo 18210" transform="translate(6515 6534.774)">
    <ellipse id="Elipse_6360" data-name="Elipse 6360" cx="88.488" cy="9.618" rx="88.488" ry="9.618" transform="translate(-6515 -6397.396)" fill="#a0abbe"/>
    <ellipse id="Elipse_6359" data-name="Elipse 6359" cx="75.023" cy="75.023" rx="75.023" ry="75.023" transform="translate(-6501.499 -6534.774)" fill="#fff"/>
    <g id="Grupo_15730" data-name="Grupo 15730" transform="translate(-7799 -4444.811)">
      <g id="Grupo_14633" data-name="Grupo 14633" transform="translate(1323 -2051)">
        <path id="Trazado_84002" data-name="Trazado 84002" d="M100.974,72H11.321A3.32,3.32,0,0,0,8,75.321V122.14l21.583-21.583L44.526,115.5,71.09,88.935l32.873,32.873h.332V75.321A3.32,3.32,0,0,0,100.974,72Z" transform="translate(-6.34 -70.34)" fill="#bcc7d5"/>
        <path id="Trazado_84003" data-name="Trazado 84003" d="M71.09,153.6,44.526,180.164,29.583,165.222,8,186.805v16.27a3.32,3.32,0,0,0,3.321,3.321h89.654a3.32,3.32,0,0,0,3.321-3.321v-16.6h-.332Z" transform="translate(-6.34 -135.005)" fill="#909aaa"/>
        <path id="Trazado_84004" data-name="Trazado 84004" d="M94.634,64H4.981A4.981,4.981,0,0,0,0,68.981v63.09a4.981,4.981,0,0,0,4.981,4.981H94.634a4.981,4.981,0,0,0,4.981-4.981V68.981A4.981,4.981,0,0,0,94.634,64ZM4.981,67.32H94.634a1.66,1.66,0,0,1,1.66,1.66v42.811L65.924,81.421a1.66,1.66,0,0,0-2.348,0l-25.39,25.39L24.417,93.043a1.66,1.66,0,0,0-2.348,0L3.321,111.792V68.981A1.66,1.66,0,0,1,4.981,67.32Zm91.314,64.75a1.66,1.66,0,0,1-1.66,1.66H4.981a1.66,1.66,0,0,1-1.66-1.66V116.487L23.244,96.564l13.768,13.768a1.66,1.66,0,0,0,2.348,0l25.39-25.39,31.545,31.545Z" transform="translate(0 -64)" fill="#99a3b4"/>
      </g>
    </g>
  </g>
</svg>
