<svg xmlns="http://www.w3.org/2000/svg" width="39.256" height="39.256" viewBox="0 0 39.256 39.256">
  <g id="cheque" transform="translate(0.5 0.5)">
    <path id="Trazado_84469" data-name="Trazado 84469" d="M101.4,63.155a1.429,1.429,0,1,0-2.115,1.922l7.257,7.882a1.436,1.436,0,0,0,1.009.481h.048a1.309,1.309,0,0,0,1.009-.433L126.97,54.7a1.427,1.427,0,1,0-2.019-2.019l-17.3,17.254Z" transform="translate(-89.82 -47.439)" fill="#fff" stroke="#fff" stroke-width="1"/>
    <path id="Trazado_84470" data-name="Trazado 84470" d="M36.814,17.686a1.416,1.416,0,0,0-1.442,1.442A16.244,16.244,0,1,1,19.128,2.884,1.416,1.416,0,0,0,20.57,1.442,1.416,1.416,0,0,0,19.128,0,19.128,19.128,0,1,0,38.256,19.128,1.416,1.416,0,0,0,36.814,17.686Z" fill="#fff" stroke="#fff" stroke-width="1"/>
  </g>
</svg>
