<svg xmlns="http://www.w3.org/2000/svg" width="25.905" height="25.905" viewBox="0 0 25.905 25.905">
  <g id="Grupo_18204" data-name="Grupo 18204" transform="translate(9593.186 10536.081)">
    <g id="correcto_1_" data-name="correcto (1)" transform="translate(-9593.186 -10536.081)">
      <path id="Trazado_82529" data-name="Trazado 82529" d="M12.953,0A12.953,12.953,0,1,0,25.906,12.953,12.967,12.967,0,0,0,12.953,0Zm0,0" fill="#fff"/>
    </g>
    <path id="Shape" d="M6.656,34.833a1.333,1.333,0,0,1-.889-.416L1,29.147v.742a.787.787,0,0,0,.2.526l4.95,5.471a.786.786,0,0,0,1.091.052c.507-.568-1.847,2.05,5-5.522a.787.787,0,0,0,.2-.526v-.742L7.689,34.406A1.322,1.322,0,0,1,6.656,34.833Z" transform="translate(-9608.56 -10515.895) rotate(-90)" fill="#bbe8e6"/>
    <path id="Shape-2" data-name="Shape" d="M6.142,12.494a.8.8,0,0,0,.541.255A.788.788,0,0,0,7.3,12.5l4.948-5.469a.781.781,0,1,0-1.16-1.047L7.955,9.445A.26.26,0,0,1,7.5,9.268V.781a.781.781,0,0,0-1.561,0V9.268a.26.26,0,0,1-.453.175l-3.13-3.46A.782.782,0,0,0,1.2,7.03Z" transform="translate(-9586.996 -10515.897) rotate(-90)" fill="#1ba3a1"/>
  </g>
</svg>
