<svg id="ic_back" xmlns="http://www.w3.org/2000/svg" width="40" height="40" viewBox="0 0 40 40">
  <rect id="Rectángulo_8481" data-name="Rectángulo 8481" width="40" height="40" fill="none"/>
  <g id="espalda_1_" data-name="espalda (1)" transform="translate(10 -20.842)">
    <g id="Grupo_10795" data-name="Grupo 10795" transform="translate(0 31.842)">
      <path id="Trazado_81683" data-name="Trazado 81683" d="M19.727,39.368a1.5,1.5,0,0,0-.26-.019H4.66l.323-.15a3,3,0,0,0,.848-.6l4.152-4.152a1.554,1.554,0,0,0,.218-1.99,1.5,1.5,0,0,0-2.253-.2L.44,39.77a1.5,1.5,0,0,0,0,2.124h0L7.949,49.4a1.5,1.5,0,0,0,2.253-.15,1.554,1.554,0,0,0-.218-1.99L5.839,43.1a3,3,0,0,0-.751-.548l-.451-.2H19.384a1.554,1.554,0,0,0,1.584-1.261A1.5,1.5,0,0,0,19.727,39.368Z" transform="translate(0 -31.842)" fill="#00a3a1"/>
    </g>
  </g>
</svg>
