<svg id="ic_blueprint" xmlns="http://www.w3.org/2000/svg" width="40" height="40" viewBox="0 0 40 40">
  <g id="noun_people_1814869" transform="translate(-18 -198.6)">
    <g id="noun_Blueprints_1568556" transform="translate(23 203.6)">
      <g id="Layer_2" data-name="Layer 2" transform="translate(0 0)">
        <path id="Trazado_82518" data-name="Trazado 82518" d="M28.491,4A6.792,6.792,0,0,0,21.7,10.637H6.45A2.45,2.45,0,0,0,4,13.087V32.523a2.45,2.45,0,0,0,2.45,2.45H28.574a6.41,6.41,0,0,0,6.4-6.41V10.676A6.667,6.667,0,0,0,28.491,4ZM15.062,15.615v5.531a.553.553,0,0,1-.553.553H13.4a.553.553,0,0,1,0-1.106.553.553,0,0,0,.553-.553V15.615a.553.553,0,0,0-.553-.553H8.978a.553.553,0,0,0-.553.553v7.743a.553.553,0,0,0,.553.553h5.531a.553.553,0,0,1,.553.553v1.106a.553.553,0,1,1-1.106,0,.553.553,0,0,0-.553-.553H8.978a.553.553,0,0,0-.553.553V30a.553.553,0,0,0,.553.553H13.4A.553.553,0,0,0,13.956,30V28.889a.553.553,0,1,1,1.106,0V31.1a.553.553,0,0,1-.553.553H7.872a.553.553,0,0,1-.553-.553V14.509a.553.553,0,0,1,.553-.553H21.146a.553.553,0,1,1,0,1.106H15.615A.553.553,0,0,0,15.062,15.615ZM30.549,31.1a.553.553,0,0,1-.553.553H20.04a.553.553,0,0,1-.553-.553V28.889a.553.553,0,1,1,1.106,0V30a.553.553,0,0,0,.553.553h7.743A.553.553,0,0,0,29.442,30V25.571a.553.553,0,0,0-.553-.553H20.04a.553.553,0,1,1,0-1.106h8.85a.553.553,0,0,0,.553-.553v-.642a.553.553,0,0,1,1.106,0Zm3.319-8.086A7.566,7.566,0,0,0,28.491,20.8a7.854,7.854,0,0,0-4.535,1.438.719.719,0,0,1-1.15-.553v-10.9A5.691,5.691,0,0,1,28.7,5.106a5.476,5.476,0,0,1,5.171,5.531Z" transform="translate(-4 -4)" fill="#00a3a1"/>
      </g>
    </g>
  </g>
  <rect id="Rectángulo_8839" data-name="Rectángulo 8839" width="40" height="40" fill="none"/>
</svg>
