<svg xmlns="http://www.w3.org/2000/svg" width="40" height="40" viewBox="0 0 40 40">
  <g id="Grupo_18206" data-name="Grupo 18206" transform="translate(-452 -1349)">
    <g id="noun_cancel_1420257" transform="translate(456 1353)">
      <path id="Trazado_82532" data-name="Trazado 82532" d="M30,6.8A16.4,16.4,0,1,0,30,30,16.4,16.4,0,0,0,30,6.8ZM25.359,23.5A1.312,1.312,0,1,1,23.5,25.359l-5.1-5.1-5.1,5.1A1.312,1.312,0,0,1,11.443,23.5l5.1-5.1-5.1-5.1A1.312,1.312,0,0,1,13.3,11.443l5.1,5.1,5.1-5.1A1.312,1.312,0,1,1,25.359,13.3l-5.1,5.1Z" transform="translate(-2 -1.999)" fill="#fff"/>
    </g>
    <rect id="Rectángulo_10434" data-name="Rectángulo 10434" width="40" height="40" transform="translate(452 1349)" fill="none"/>
  </g>
</svg>
