<svg id="Componente_71_1" data-name="Componente 71 – 1" xmlns="http://www.w3.org/2000/svg" xmlns:xlink="http://www.w3.org/1999/xlink" width="64" height="65.001" viewBox="0 0 64 65.001">
  <defs>
    <linearGradient id="linear-gradient" x1="0.048" y1="0.042" x2="1.056" y2="1" gradientUnits="objectBoundingBox">
      <stop offset="0" stop-color="#024b4a"/>
      <stop offset="0.642" stop-color="#00a3a1" stop-opacity="0.604"/>
      <stop offset="1" stop-color="#fff" stop-opacity="0"/>
    </linearGradient>
  </defs>
  <path id="Rectángulo_8828" data-name="Rectángulo 8828" d="M10,0H64a0,0,0,0,1,0,0V65a0,0,0,0,1,0,0H10A10,10,0,0,1,0,55V10A10,10,0,0,1,10,0Z" fill="#03a3a1"/>
  <path id="Trazado_84586" data-name="Trazado 84586" d="M-6860.289,6823.113l7.857,6.573,2.792,4.843,13.265,17.731v21.684h-26.84l-14.875-16.508-7.021-9.082a23.06,23.06,0,0,1,2.38-18.667C-6876.976,6820.123-6860.289,6823.113-6860.289,6823.113Z" transform="translate(6900.374 -6808.942)" fill="url(#linear-gradient)"/>
  <g id="noun_time_zone_2406165" data-name="noun_time zone_2406165" transform="translate(14.282 13.729)" opacity="0.25">
    <g id="Grupo_11732" data-name="Grupo 11732" transform="translate(0 0)">
      <g id="Grupo_11729" data-name="Grupo 11729" transform="translate(20.958 20.958)">
        <g id="Grupo_11728" data-name="Grupo 11728">
          <path id="Trazado_82488" data-name="Trazado 82488" d="M76.031,66.3h0A9.752,9.752,0,0,0,66.3,76.031,9.715,9.715,0,1,0,76.031,66.3Zm4.816,6.244-3.82,4.55A1.506,1.506,0,0,1,74.769,75.1l.2-.2,4.749-3.587a.848.848,0,0,1,1.2.133A.9.9,0,0,1,80.847,72.544Z" transform="translate(-66.3 -66.3)" fill="#fff"/>
        </g>
      </g>
      <g id="Grupo_11731" data-name="Grupo 11731">
        <g id="Grupo_11730" data-name="Grupo 11730">
          <path id="Trazado_82489" data-name="Trazado 82489" d="M23.194,39.137c-1.794-.133-3.72-2.026-5.082-5.148a18.389,18.389,0,0,1-.83-2.292h4.882a12.2,12.2,0,0,1,1-3.056H16.585c-.066-.332-.1-.664-.166-1-.1-.7-.166-1.395-.2-2.126-.033-.7-.066-1.395-.066-2.126a32.579,32.579,0,0,1,.432-5.248H30.2a8.344,8.344,0,0,1,.133.9c.1.731.166,1.461.232,2.225.033.365.033.731.066,1.129a13.038,13.038,0,0,1,3.022-.465c0-.432-.033-.83-.066-1.262-.066-.864-.166-1.727-.3-2.557h6.443a17.183,17.183,0,0,1,.83,5.248v.6a13.088,13.088,0,0,1,2.79,2.624,20.828,20.828,0,0,0,.266-3.255,19.781,19.781,0,0,0-1.428-7.44,6.272,6.272,0,0,0-.365-.83,20.234,20.234,0,0,0-36.867.066c-.133.266-.232.565-.365.83A20.433,20.433,0,0,0,3.2,23.394a19.781,19.781,0,0,0,1.428,7.44,6.273,6.273,0,0,0,.365.83A20.238,20.238,0,0,0,23.427,43.587a21.164,21.164,0,0,0,3.255-.266A12.145,12.145,0,0,1,23.194,39.137ZM38.406,15.124H32.66c-.1-.332-.166-.664-.266-.963a21.315,21.315,0,0,0-.8-2.192,15.777,15.777,0,0,0-3.089-4.916A16.973,16.973,0,0,1,38.406,15.124ZM23.394,7.651c1.86,0,3.82,1.893,5.214,5.082a15.535,15.535,0,0,1,.864,2.391H17.282C18.677,10.474,21.135,7.651,23.394,7.651ZM18.279,7.02a18.472,18.472,0,0,0-4.152,8.1H8.381A17.149,17.149,0,0,1,18.279,7.02ZM6.256,23.394a17.183,17.183,0,0,1,.83-5.248h6.443a29.712,29.712,0,0,0-.432,5.248c0,.9.033,1.76.1,2.624.066.9.166,1.794.3,2.624H7.053A17.166,17.166,0,0,1,6.256,23.394Zm2.126,8.27h5.746c.066.3.166.6.232.864a20.553,20.553,0,0,0,.83,2.292,15.777,15.777,0,0,0,3.089,4.916A16.973,16.973,0,0,1,8.381,31.664Z" transform="translate(-3.2 -3.2)" fill="#fff"/>
        </g>
      </g>
    </g>
  </g>
  <g id="noun_time_zone_2406165-2" data-name="noun_time zone_2406165" transform="translate(12.644 12.29)">
    <g id="Grupo_11732-2" data-name="Grupo 11732" transform="translate(0 0)">
      <g id="Grupo_11729-2" data-name="Grupo 11729" transform="translate(20.958 20.958)">
        <g id="Grupo_11728-2" data-name="Grupo 11728">
          <path id="Trazado_82488-2" data-name="Trazado 82488" d="M76.031,66.3h0A9.752,9.752,0,0,0,66.3,76.031,9.715,9.715,0,1,0,76.031,66.3Zm4.816,6.244-3.82,4.55A1.506,1.506,0,0,1,74.769,75.1l.2-.2,4.749-3.587a.848.848,0,0,1,1.2.133A.9.9,0,0,1,80.847,72.544Z" transform="translate(-66.3 -66.3)" fill="#fff"/>
        </g>
      </g>
      <g id="Grupo_11731-2" data-name="Grupo 11731">
        <g id="Grupo_11730-2" data-name="Grupo 11730">
          <path id="Trazado_82489-2" data-name="Trazado 82489" d="M23.194,39.137c-1.794-.133-3.72-2.026-5.082-5.148a18.389,18.389,0,0,1-.83-2.292h4.882a12.2,12.2,0,0,1,1-3.056H16.585c-.066-.332-.1-.664-.166-1-.1-.7-.166-1.395-.2-2.126-.033-.7-.066-1.395-.066-2.126a32.579,32.579,0,0,1,.432-5.248H30.2a8.344,8.344,0,0,1,.133.9c.1.731.166,1.461.232,2.225.033.365.033.731.066,1.129a13.038,13.038,0,0,1,3.022-.465c0-.432-.033-.83-.066-1.262-.066-.864-.166-1.727-.3-2.557h6.443a17.183,17.183,0,0,1,.83,5.248v.6a13.088,13.088,0,0,1,2.79,2.624,20.828,20.828,0,0,0,.266-3.255,19.781,19.781,0,0,0-1.428-7.44,6.272,6.272,0,0,0-.365-.83,20.234,20.234,0,0,0-36.867.066c-.133.266-.232.565-.365.83A20.433,20.433,0,0,0,3.2,23.394a19.781,19.781,0,0,0,1.428,7.44,6.273,6.273,0,0,0,.365.83A20.238,20.238,0,0,0,23.427,43.587a21.164,21.164,0,0,0,3.255-.266A12.145,12.145,0,0,1,23.194,39.137ZM38.406,15.124H32.66c-.1-.332-.166-.664-.266-.963a21.315,21.315,0,0,0-.8-2.192,15.777,15.777,0,0,0-3.089-4.916A16.973,16.973,0,0,1,38.406,15.124ZM23.394,7.651c1.86,0,3.82,1.893,5.214,5.082a15.535,15.535,0,0,1,.864,2.391H17.282C18.677,10.474,21.135,7.651,23.394,7.651ZM18.279,7.02a18.472,18.472,0,0,0-4.152,8.1H8.381A17.149,17.149,0,0,1,18.279,7.02ZM6.256,23.394a17.183,17.183,0,0,1,.83-5.248h6.443a29.712,29.712,0,0,0-.432,5.248c0,.9.033,1.76.1,2.624.066.9.166,1.794.3,2.624H7.053A17.166,17.166,0,0,1,6.256,23.394Zm2.126,8.27h5.746c.066.3.166.6.232.864a20.553,20.553,0,0,0,.83,2.292,15.777,15.777,0,0,0,3.089,4.916A16.973,16.973,0,0,1,8.381,31.664Z" transform="translate(-3.2 -3.2)" fill="#fff"/>
        </g>
      </g>
    </g>
  </g>
</svg>
