<svg xmlns="http://www.w3.org/2000/svg" xmlns:xlink="http://www.w3.org/1999/xlink" width="140" height="140" viewBox="0 0 140 140">
  <defs>
    <filter id="Rectángulo_8850" x="0" y="0" width="140" height="140" filterUnits="userSpaceOnUse">
      <feOffset input="SourceAlpha"/>
      <feGaussianBlur stdDeviation="5" result="blur"/>
      <feFlood flood-opacity="0.302"/>
      <feComposite operator="in" in2="blur"/>
      <feComposite in="SourceGraphic"/>
    </filter>
    <clipPath id="clip-path">
      <rect id="Rectángulo_8820" data-name="Rectángulo 8820" width="114" height="114" rx="34" transform="translate(0)" fill="#00a3a1"/>
    </clipPath>
  </defs>
  <g id="Grupo_11748" data-name="Grupo 11748" transform="translate(-322 -640)">
    <g transform="matrix(1, 0, 0, 1, 322, 640)" filter="url(#Rectángulo_8850)">
      <rect id="Rectángulo_8850-2" data-name="Rectángulo 8850" width="110" height="110" rx="31" transform="translate(15 15)" fill="#0091da"/>
    </g>
    <g id="Enmascarar_grupo_11" data-name="Enmascarar grupo 11" transform="translate(335 653)" clip-path="url(#clip-path)">
      <path id="Trazado_82528" data-name="Trazado 82528" d="M11.12,0h90.814a11.12,11.12,0,0,1,11.12,11.12v90.814a11.12,11.12,0,0,1-11.12,11.12H11.12A11.12,11.12,0,0,1,0,101.935V11.12A11.12,11.12,0,0,1,11.12,0Z" transform="translate(0.439 0.439)" fill="#00a3a1"/>
      <path id="Trazado_82474" data-name="Trazado 82474" d="M-542.079-115.023a5.925,5.925,0,0,0-1.505-2.253l-.008-.014,0,0a5.933,5.933,0,0,0-4.051-1.61h-5.688v-1.67a3.585,3.585,0,0,0-3.584-3.586,3.586,3.586,0,0,0-3.584,3.586v1.67h-20.041v-1.67a3.585,3.585,0,0,0-3.584-3.586,3.586,3.586,0,0,0-3.584,3.586v1.712a1.167,1.167,0,0,0-.318-.043h-4.748a5.971,5.971,0,0,0-5.967,5.965v26.627a9.761,9.761,0,0,0-.66,13.394,10.049,10.049,0,0,0,1.046,1.044h-3.227a1.2,1.2,0,0,0-1.193,1.186v3.1a4.512,4.512,0,0,0,1.538,3.378l-.008.01,25.468,29.12h63.316v-35.6Z" transform="translate(625.956 148.57)" fill="#00338d" opacity="0.2"/>
      <g id="Grupo_11713" data-name="Grupo 11713" transform="translate(23.181 24.419)">
        <g id="Grupo_11690" data-name="Grupo 11690" transform="translate(0 0)">
          <g id="Grupo_11689" data-name="Grupo 11689">
            <path id="Trazado_82461" data-name="Trazado 82461" d="M-580.816-118.085H-586.5v-1.67a3.583,3.583,0,0,0-3.584-3.584,3.583,3.583,0,0,0-3.584,3.584v1.67h-20.041v-1.67a3.583,3.583,0,0,0-3.584-3.584,3.583,3.583,0,0,0-3.584,3.584v1.714a1.172,1.172,0,0,0-.317-.044h-4.748a5.972,5.972,0,0,0-5.967,5.967v20.327a1.193,1.193,0,0,0,1.193,1.193,1.194,1.194,0,0,0,1.193-1.193h0v-14H-586.5a1.194,1.194,0,0,0,1.193-1.193,1.192,1.192,0,0,0-1.193-1.193h-43.021v-3.938a3.584,3.584,0,0,1,3.58-3.58h4.755a1.18,1.18,0,0,0,.318-.045v1.536a3.583,3.583,0,0,0,3.584,3.584,3.583,3.583,0,0,0,3.584-3.584V-115.7h20.041v1.492a3.583,3.583,0,0,0,3.584,3.584,3.583,3.583,0,0,0,3.584-3.584V-115.7h5.688a3.582,3.582,0,0,1,3.572,3.58v45.35a2.15,2.15,0,0,1-2.148,2.148,2.148,2.148,0,0,1-2.148-2.148v-3.1a1.194,1.194,0,0,0-1.194-1.193h-13.882a1.194,1.194,0,0,0-1.193,1.193,1.194,1.194,0,0,0,1.193,1.193h12.687v1.906a4.519,4.519,0,0,0,.543,2.148h-48.033a2.151,2.151,0,0,1-2.149-2.148v-1.9h26.71a1.194,1.194,0,0,0,1.193-1.193,1.194,1.194,0,0,0-1.193-1.193h-11.924a9.785,9.785,0,0,0,1.046-13.8,9.785,9.785,0,0,0-13.8-1.046,9.785,9.785,0,0,0-1.046,13.8,9.918,9.918,0,0,0,1.046,1.046h-3.227a1.192,1.192,0,0,0-1.194,1.186v3.1a4.539,4.539,0,0,0,4.535,4.535h52.031a4.543,4.543,0,0,0,4.531-4.535v-45.35A5.971,5.971,0,0,0-580.816-118.085Zm-35.282,3.874a1.194,1.194,0,0,1-1.193,1.193,1.194,1.194,0,0,1-1.193-1.193v-5.544a1.194,1.194,0,0,1,1.193-1.193,1.194,1.194,0,0,1,1.193,1.193Zm27.208,0a1.194,1.194,0,0,1-1.193,1.193,1.194,1.194,0,0,1-1.194-1.193v-5.544a1.194,1.194,0,0,1,1.194-1.193,1.194,1.194,0,0,1,1.193,1.193Zm-43.659,35.745a7.4,7.4,0,0,1,7.4-7.4,7.4,7.4,0,0,1,7.4,7.4,7.4,7.4,0,0,1-7.4,7.4A7.409,7.409,0,0,1-632.549-78.466Z" transform="translate(635.947 123.339)" fill="#fff"/>
          </g>
        </g>
        <g id="Grupo_11692" data-name="Grupo 11692" transform="translate(53.847 15.159)">
          <g id="Grupo_11691" data-name="Grupo 11691">
            <path id="Trazado_82462" data-name="Trazado 82462" d="M-606.116-115.165a1.193,1.193,0,0,0-1.687,0,1.193,1.193,0,0,0,0,1.687,1.193,1.193,0,0,0,1.687,0,1.2,1.2,0,0,0,.349-.843A1.2,1.2,0,0,0-606.116-115.165Z" transform="translate(608.151 115.514)" fill="#fff"/>
          </g>
        </g>
        <g id="Grupo_11694" data-name="Grupo 11694" transform="translate(33.601 52.287)">
          <g id="Grupo_11693" data-name="Grupo 11693">
            <path id="Trazado_82463" data-name="Trazado 82463" d="M-616.566-96a1.193,1.193,0,0,0-1.687,0,1.193,1.193,0,0,0,0,1.687,1.193,1.193,0,0,0,1.687,0,1.2,1.2,0,0,0,.348-.845A1.2,1.2,0,0,0-616.566-96Z" transform="translate(618.602 96.348)" fill="#fff"/>
          </g>
        </g>
        <g id="Grupo_11696" data-name="Grupo 11696" transform="translate(22.464 36.28)">
          <g id="Grupo_11695" data-name="Grupo 11695">
            <path id="Trazado_82464" data-name="Trazado 82464" d="M-619.816-104.611a4.535,4.535,0,0,0-4.535,4.535,4.535,4.535,0,0,0,4.535,4.535,4.535,4.535,0,0,0,4.535-4.535A4.538,4.538,0,0,0-619.816-104.611Zm0,6.683a2.148,2.148,0,0,1-2.148-2.148,2.147,2.147,0,0,1,2.148-2.148,2.148,2.148,0,0,1,2.149,2.148A2.152,2.152,0,0,1-619.816-97.928Z" transform="translate(624.351 104.611)" fill="#fff"/>
          </g>
        </g>
        <g id="Grupo_11698" data-name="Grupo 11698" transform="translate(33.601 36.28)">
          <g id="Grupo_11697" data-name="Grupo 11697">
            <path id="Trazado_82465" data-name="Trazado 82465" d="M-614.067-104.611a4.535,4.535,0,0,0-4.535,4.535,4.535,4.535,0,0,0,4.535,4.535,4.535,4.535,0,0,0,4.535-4.535A4.539,4.539,0,0,0-614.067-104.611Zm0,6.683a2.149,2.149,0,0,1-2.149-2.148,2.147,2.147,0,0,1,2.149-2.148,2.148,2.148,0,0,1,2.148,2.148A2.152,2.152,0,0,1-614.067-97.928Z" transform="translate(618.602 104.611)" fill="#fff"/>
          </g>
        </g>
        <g id="Grupo_11700" data-name="Grupo 11700" transform="translate(44.738 36.28)">
          <g id="Grupo_11699" data-name="Grupo 11699">
            <path id="Trazado_82466" data-name="Trazado 82466" d="M-608.318-104.611a4.535,4.535,0,0,0-4.535,4.535,4.535,4.535,0,0,0,4.535,4.535,4.535,4.535,0,0,0,4.535-4.535A4.538,4.538,0,0,0-608.318-104.611Zm0,6.683a2.148,2.148,0,0,1-2.148-2.148,2.147,2.147,0,0,1,2.148-2.148,2.148,2.148,0,0,1,2.148,2.148A2.152,2.152,0,0,1-608.318-97.928Z" transform="translate(612.853 104.611)" fill="#fff"/>
          </g>
        </g>
        <g id="Grupo_11702" data-name="Grupo 11702" transform="translate(11.327 23.87)">
          <g id="Grupo_11701" data-name="Grupo 11701">
            <path id="Trazado_82467" data-name="Trazado 82467" d="M-625.565-111.017a4.535,4.535,0,0,0-4.535,4.535,4.535,4.535,0,0,0,4.535,4.535,4.535,4.535,0,0,0,4.535-4.535A4.538,4.538,0,0,0-625.565-111.017Zm0,6.683a2.148,2.148,0,0,1-2.149-2.148,2.147,2.147,0,0,1,2.149-2.148,2.148,2.148,0,0,1,2.148,2.148h0A2.152,2.152,0,0,1-625.565-104.334Z" transform="translate(630.1 111.017)" fill="#fff"/>
          </g>
        </g>
        <g id="Grupo_11704" data-name="Grupo 11704" transform="translate(33.601 23.87)">
          <g id="Grupo_11703" data-name="Grupo 11703">
            <path id="Trazado_82468" data-name="Trazado 82468" d="M-614.067-111.017a4.535,4.535,0,0,0-4.535,4.535,4.535,4.535,0,0,0,4.535,4.535,4.535,4.535,0,0,0,4.535-4.535A4.539,4.539,0,0,0-614.067-111.017Zm0,6.683a2.149,2.149,0,0,1-2.149-2.148,2.147,2.147,0,0,1,2.149-2.148,2.148,2.148,0,0,1,2.148,2.148A2.152,2.152,0,0,1-614.067-104.334Z" transform="translate(618.602 111.017)" fill="#fff"/>
          </g>
        </g>
        <g id="Grupo_11706" data-name="Grupo 11706" transform="translate(44.738 23.87)">
          <g id="Grupo_11705" data-name="Grupo 11705">
            <path id="Trazado_82469" data-name="Trazado 82469" d="M-608.318-111.017a4.535,4.535,0,0,0-4.535,4.535,4.535,4.535,0,0,0,4.535,4.535,4.535,4.535,0,0,0,4.535-4.535A4.538,4.538,0,0,0-608.318-111.017Zm0,6.683a2.148,2.148,0,0,1-2.148-2.148,2.147,2.147,0,0,1,2.148-2.148,2.148,2.148,0,0,1,2.148,2.148A2.152,2.152,0,0,1-608.318-104.334Z" transform="translate(612.853 111.017)" fill="#fff"/>
          </g>
        </g>
        <g id="Grupo_11708" data-name="Grupo 11708" transform="translate(22.464 23.87)">
          <g id="Grupo_11707" data-name="Grupo 11707">
            <path id="Trazado_82470" data-name="Trazado 82470" d="M-619.816-111.017a4.535,4.535,0,0,0-4.535,4.535,4.535,4.535,0,0,0,4.535,4.535,4.535,4.535,0,0,0,4.535-4.535A4.539,4.539,0,0,0-619.816-111.017Zm0,6.683a2.148,2.148,0,0,1-2.148-2.148,2.147,2.147,0,0,1,2.148-2.148,2.148,2.148,0,0,1,2.149,2.148h0A2.152,2.152,0,0,1-619.816-104.334Z" transform="translate(624.351 111.017)" fill="#fff"/>
          </g>
        </g>
        <g id="Grupo_11710" data-name="Grupo 11710" transform="translate(6.126 41.616)">
          <g id="Grupo_11709" data-name="Grupo 11709">
            <path id="Trazado_82471" data-name="Trazado 82471" d="M-623.86-101.507a1.192,1.192,0,0,0-1.688,0l-3.886,3.886-1.329-1.329a1.193,1.193,0,0,0-1.687.031,1.193,1.193,0,0,0,0,1.656l2.172,2.172a1.2,1.2,0,0,0,1.687,0l4.731-4.731A1.193,1.193,0,0,0-623.86-101.507Z" transform="translate(632.785 101.857)" fill="#fff"/>
          </g>
        </g>
      </g>
      <g id="Grupo_11714" data-name="Grupo 11714" transform="translate(27.055 27.932)" opacity="0.15">
        <path id="Trazado_82475" data-name="Trazado 82475" d="M-613.988-118.085h-5.688v-1.67a3.583,3.583,0,0,0-3.583-3.584,3.583,3.583,0,0,0-3.582,3.584v1.67h-20.042v-1.67a3.583,3.583,0,0,0-3.584-3.584,3.585,3.585,0,0,0-3.584,3.584v1.714a1.162,1.162,0,0,0-.318-.044h-4.748a5.971,5.971,0,0,0-5.966,5.967v26.625a9.759,9.759,0,0,0-.659,13.394,9.886,9.886,0,0,0,1.044,1.046h-3.227a1.192,1.192,0,0,0-1.191,1.186v3.1a4.539,4.539,0,0,0,4.535,4.535h52.029a4.543,4.543,0,0,0,4.533-4.535v-45.35A5.972,5.972,0,0,0-613.988-118.085Z" transform="translate(669.117 123.339)" fill="#fff"/>
      </g>
    </g>
  </g>
</svg>
