<svg id="ic_check_out" xmlns="http://www.w3.org/2000/svg" width="40" height="40" viewBox="0 0 40 40">
  <rect id="Rectángulo_8843" data-name="Rectángulo 8843" width="40" height="40" fill="none"/>
  <g id="noun_time_out_2406164" data-name="noun_time out_2406164" transform="translate(-2.05 0.3)">
    <g id="Grupo_11745" data-name="Grupo 11745" transform="translate(7.05 3.7)">
      <path id="Trazado_82524" data-name="Trazado 82524" d="M30.971,22.16c0-.132-.026-.238-.026-.37,0-.106-.026-.185-.026-.291-.5-4.258-2.724-8.066-4.152-12.033-.212-.635-.423-1.269-.608-1.931A8.059,8.059,0,0,0,24.571,12.4v.529a1.927,1.927,0,0,1-.476,1.534c-2.724,2.38-4.39-4.126-4.813-5.739a14.23,14.23,0,0,1-.635-4.073c0-.291.132-.582.132-.846,0-.053,0-.079.026-.106-3.041,1.64-4.179,5.263-3.729,8.542a17.7,17.7,0,0,1,.026,4.1,13.354,13.354,0,0,1-.291,2.3c-.159.608-1.058,2.75-1.931,1.693-.529-.661,0-2.274.159-2.988.132-.926.264-1.851.317-2.856a8.9,8.9,0,0,0,0-1.455h0c-.079-1.666-1.587-3.782-1.587-3.385-.079,2.407-1.8,4.6-2.8,6.665a22.834,22.834,0,0,0-1.375,3.491v.026A12.649,12.649,0,0,0,9.311,30.86a12.107,12.107,0,0,0,16.344,2.83,6.744,6.744,0,0,0,11.531-4.734A6.786,6.786,0,0,0,30.971,22.16ZM34.33,32.738a5.506,5.506,0,0,1-3.888,1.613,5.514,5.514,0,0,1,0-11.028h0A3.906,3.906,0,0,1,31,23.35a5.519,5.519,0,0,1,3.332,9.388Z" transform="translate(-7.05 -3.7)" fill="#00a3a1"/>
      <path id="Trazado_82525" data-name="Trazado 82525" d="M94.965,88.516l-2.46,1.878-.212.159c-.053.026-.079.079-.106.106a.867.867,0,0,0-.185.82.953.953,0,0,0,.264.4.873.873,0,0,0,1.217-.079L95.652,89.2a.478.478,0,0,0,.026-.608A.533.533,0,0,0,94.965,88.516Z" transform="translate(-69.51 -66.01)" fill="#00a3a1"/>
    </g>
  </g>
</svg>
