<svg id="ic_excellent" xmlns="http://www.w3.org/2000/svg" width="203.163" height="172.247" viewBox="0 0 203.163 172.247">
  <circle id="Elipse_6357" data-name="Elipse 6357" cx="86.123" cy="86.123" r="86.123" transform="translate(15.564)" fill="#fff"/>
  <ellipse id="Elipse_6358" data-name="Elipse 6358" cx="101.582" cy="11.041" rx="101.582" ry="11.041" transform="translate(0 150.164)" fill="#a0abbe"/>
  <path id="Trazado_83980" data-name="Trazado 83980" d="M140.178,52.6H18.811V23.477H43.085V35.613H57.649V23.477H101.34V35.613H115.9V23.477h24.273Zm0,82.529H18.811V59.886H140.178ZM115.9,16.195V6.485H101.34v9.709H57.649V6.485H43.085v9.709H11.53v126.22h135.93V16.195Z" transform="translate(21.675 12.191)" fill="#7e7e7e" fill-rule="evenodd"/>
  <path id="Trazado_83981" data-name="Trazado 83981" d="M31.993,27.557H17.429V42.121H31.993Z" transform="translate(32.765 51.804)" fill="#7e7e7e"/>
  <path id="Trazado_83982" data-name="Trazado 83982" d="M52.222,27.557H37.658V42.121H52.222Z" transform="translate(70.792 51.804)" fill="#bac1cc"/>
  <path id="Trazado_83983" data-name="Trazado 83983" d="M42.107,27.557H27.544V42.121H42.107Z" transform="translate(51.779 51.804)" fill="#7e7e7e"/>
  <path id="Trazado_83984" data-name="Trazado 83984" d="M62.336,27.557H47.772V42.121H62.336Z" transform="translate(89.806 51.804)" fill="#bac1cc"/>
  <path id="Trazado_83985" data-name="Trazado 83985" d="M31.993,35.143H17.429V49.706H31.993Z" transform="translate(32.765 66.064)" fill="#7e7e7e"/>
  <path id="Trazado_83986" data-name="Trazado 83986" d="M52.222,35.143H37.658V49.706H52.222Z" transform="translate(70.792 66.064)" fill="#bac1cc"/>
  <path id="Trazado_83987" data-name="Trazado 83987" d="M42.107,35.143H27.544V49.706H42.107Z" transform="translate(51.779 66.064)" fill="#7e7e7e"/>
  <path id="Trazado_83988" data-name="Trazado 83988" d="M62.336,35.143H47.772V49.706H62.336Z" transform="translate(89.806 66.064)" fill="#bac1cc"/>
  <path id="Trazado_83989" data-name="Trazado 83989" d="M31.993,42.728H17.429V57.292H31.993Z" transform="translate(32.765 80.323)" fill="#7e7e7e"/>
  <path id="Trazado_83990" data-name="Trazado 83990" d="M52.222,42.728H37.658V57.292H52.222Z" transform="translate(70.792 80.323)" fill="#bac1cc"/>
  <path id="Trazado_83991" data-name="Trazado 83991" d="M42.107,42.728H27.544V57.292H42.107Z" transform="translate(51.779 80.323)" fill="#7e7e7e"/>
  <path id="Trazado_83992" data-name="Trazado 83992" d="M62.336,42.728H47.772V57.292H62.336Z" transform="translate(89.806 80.323)" fill="#bac1cc"/>
  <g id="Grupo_14626" data-name="Grupo 14626" transform="translate(33.204 18.677)">
    <path id="Trazado_83993" data-name="Trazado 83993" d="M140.178,52.6H18.811V23.477H43.085V35.613H57.649V23.477H101.34V35.613H115.9V23.477h24.273Zm0,82.529H18.811V59.886H140.178ZM115.9,16.195V6.485H101.34v9.709H57.649V6.485H43.085v9.709H11.53v126.22h135.93V16.195Z" transform="translate(-11.53 -6.485)" fill="#a0abbe" fill-rule="evenodd"/>
    <path id="Trazado_83994" data-name="Trazado 83994" d="M31.993,27.557H17.429V42.121H31.993Z" transform="translate(-0.439 33.126)" fill="#a0abbe"/>
    <path id="Trazado_83995" data-name="Trazado 83995" d="M42.107,27.557H27.544V42.121H42.107Z" transform="translate(18.574 33.126)" fill="#a0abbe"/>
    <path id="Trazado_83996" data-name="Trazado 83996" d="M31.993,35.143H17.429V49.706H31.993Z" transform="translate(-0.439 47.387)" fill="#a0abbe"/>
    <path id="Trazado_83997" data-name="Trazado 83997" d="M42.107,35.143H27.544V49.706H42.107Z" transform="translate(18.574 47.387)" fill="#a0abbe"/>
    <path id="Trazado_83998" data-name="Trazado 83998" d="M31.993,42.728H17.429V57.292H31.993Z" transform="translate(-0.439 61.646)" fill="#a0abbe"/>
    <path id="Trazado_83999" data-name="Trazado 83999" d="M42.107,42.728H27.544V57.292H42.107Z" transform="translate(18.574 61.646)" fill="#a0abbe"/>
  </g>
  <rect id="Rect치ngulo_9104" data-name="Rect치ngulo 9104" width="56.032" height="6.226" transform="translate(43.581 57.069)" fill="#a0abbe"/>
  <rect id="Rect치ngulo_9105" data-name="Rect치ngulo 9105" width="35.279" height="6.226" transform="translate(43.581 49.806)" fill="#a0abbe"/>
</svg>
