<svg xmlns="http://www.w3.org/2000/svg" width="12.901" height="12.028" viewBox="0 0 12.901 12.028">
  <g id="Grupo_17598" data-name="Grupo 17598" transform="translate(0.5 0.5)">
    <g id="Grupo_17595" data-name="Grupo 17595" transform="translate(0 0)">
      <g id="Grupo_15741" data-name="Grupo 15741">
        <path id="Trazado_84350" data-name="Trazado 84350" d="M5.514,10.959H1.378A.46.46,0,0,1,.919,10.5V2.229a.46.46,0,0,1,.459-.459H5.514a.46.46,0,0,0,0-.919H1.378A1.38,1.38,0,0,0,0,2.229V10.5a1.38,1.38,0,0,0,1.378,1.378H5.514a.459.459,0,0,0,0-.919Z" transform="translate(0 -0.85)" fill="#fff" stroke="#fff" stroke-width="1"/>
      </g>
    </g>
    <g id="Grupo_17596" data-name="Grupo 17596" transform="translate(4.512 2.51)">
      <g id="Grupo_15743" data-name="Grupo 15743">
        <path id="Trazado_84351" data-name="Trazado 84351" d="M177.352,110.054l-2.794-2.757a.459.459,0,1,0-.645.654l2,1.97h-5.35a.459.459,0,0,0,0,.919h5.35l-2,1.97a.459.459,0,1,0,.645.654l2.794-2.757a.459.459,0,0,0,0-.654Z" transform="translate(-170.1 -107.165)" fill="#fff" stroke="#fff" stroke-width="1"/>
      </g>
    </g>
  </g>
</svg>
