<svg id="ic_email2" xmlns="http://www.w3.org/2000/svg" width="40" height="40" viewBox="0 0 40 40">
  <rect id="Rectángulo_84" data-name="Rectángulo 84" width="40" height="40" fill="none"/>
  <g id="conexion" transform="translate(10.719 11)">
    <g id="url" transform="translate(-0.719 -1.588)">
      <path id="Trazado_84428" data-name="Trazado 84428" d="M152.6,5.565a5.444,5.444,0,0,0,.851,8.216.225.225,0,0,0,.282-.027,9.034,9.034,0,0,0,1.459-1.764.212.212,0,0,0-.083-.3,2.724,2.724,0,0,1-1.044-1.075h0a2.622,2.622,0,0,1-.222-1.791h0a5.8,5.8,0,0,1,1.7-2.259h0l2.487-2.538a2.55,2.55,0,0,1,3.622-.019,2.582,2.582,0,0,1,.037,3.641L160.178,9.2a.264.264,0,0,0-.06.271,7.128,7.128,0,0,1,.2,3.5.031.031,0,0,0,.052.028l3.206-3.272A5.375,5.375,0,1,0,155.9,2.2l-3.285,3.352-.013.014Z" transform="translate(-145.247 0)" fill="#045eb8"/>
      <path id="Trazado_84429" data-name="Trazado 84429" d="M13.347,177.826h0l.006,0a5.5,5.5,0,0,0,.476-3.906h0a5.4,5.4,0,0,0-2.175-3.1.3.3,0,0,0-.33.015,5.217,5.217,0,0,0-1.442,1.741.241.241,0,0,0,.1.315,2.7,2.7,0,0,1,1.033,1.054h0a2.47,2.47,0,0,1,.262,1.621h0c-.116.888-1.012,1.7-1.724,2.435h0c-.542.555-1.921,1.96-2.473,2.524a2.574,2.574,0,1,1-3.678-3.6L4.9,175.365a.264.264,0,0,0,.061-.266,7.512,7.512,0,0,1-.216-3.485.031.031,0,0,0-.052-.027l-3.158,3.223a5.458,5.458,0,0,0,.039,7.64,5.39,5.39,0,0,0,7.6-.078c.719-.8,3.8-3.652,4.166-4.546Z" transform="translate(0 -163.583)" fill="#045eb8"/>
    </g>
  </g>
</svg>
