<svg xmlns="http://www.w3.org/2000/svg" width="40" height="40" viewBox="0 0 40 40">
  <g id="Grupo_18207" data-name="Grupo 18207" transform="translate(-713 -1355)">
    <g id="noun_edit_1072351_1_" data-name="noun_edit_1072351 (1)" transform="translate(717 1359)">
      <path id="Trazado_82531" data-name="Trazado 82531" d="M15.745,0A15.745,15.745,0,1,0,31.49,15.745,15.745,15.745,0,0,0,15.745,0ZM23.31,11.52,12.655,22.174a.087.087,0,0,1-.048.025l.012.012L8.057,23.433l1.222-4.562.012.012a.087.087,0,0,1,.025-.048l1.07-1.07,9.428-9.428.156-.156a.088.088,0,0,1,.089-.021.955.955,0,0,1,1.107.178l1.989,1.989a.955.955,0,0,1,.178,1.107.087.087,0,0,1-.023.087Z" fill="#fff"/>
      <path id="Trazado_84344" data-name="Trazado 84344" d="M15.745,0A15.745,15.745,0,1,0,31.49,15.745,15.745,15.745,0,0,0,15.745,0ZM23.31,11.52,12.655,22.174a.087.087,0,0,1-.048.025l.012.012L8.057,23.433l1.222-4.562.012.012a.087.087,0,0,1,.025-.048l1.07-1.07,9.428-9.428.156-.156a.088.088,0,0,1,.089-.021.955.955,0,0,1,1.107.178l1.989,1.989a.955.955,0,0,1,.178,1.107.087.087,0,0,1-.023.087Z" fill="#fff"/>
    </g>
    <rect id="Rectángulo_10435" data-name="Rectángulo 10435" width="40" height="40" transform="translate(713 1355)" fill="none"/>
  </g>
</svg>
