<svg id="ic_hours" xmlns="http://www.w3.org/2000/svg" width="20" height="22.266" viewBox="0 0 20 22.266">
  <path id="Trazado_83321" data-name="Trazado 83321" d="M24.044,18.022V12.46a.522.522,0,1,0-1.044,0v5.775a.534.534,0,0,0,.013.065.514.514,0,0,0,.026.129.47.47,0,0,0,.07.11.436.436,0,0,0,.038.057L25.381,20.9a.522.522,0,0,0,.75-.726Z" transform="translate(-13.522 -7.101)" fill="#fff"/>
  <path id="Trazado_83322" data-name="Trazado 83322" d="M25.976,6A9.946,9.946,0,0,0,18.9,3.839a2.033,2.033,0,1,0,.181,1.036A8.951,8.951,0,0,1,26.708,19.41a.522.522,0,0,0,.815.654A10.016,10.016,0,0,0,25.976,6Z" transform="translate(-9.718 -2.672)" fill="#fff"/>
  <path id="Trazado_83323" data-name="Trazado 83323" d="M17.489,25.167a2.024,2.024,0,0,0-2.011,1.853A8.952,8.952,0,0,1,7.852,12.485a.522.522,0,0,0-.815-.654A10.005,10.005,0,0,0,14.827,28.1c.276,0,.555-.017.833-.041a2.025,2.025,0,1,0,1.83-2.887Z" transform="translate(-4.842 -6.957)" fill="#fff"/>
</svg>
