<svg id="ic_idcard" xmlns="http://www.w3.org/2000/svg" width="40" height="40" viewBox="0 0 40 40">
  <g id="ic_m_id" transform="translate(8 8)">
    <g id="noun_id_1946991" transform="translate(-2.5 -10.206)">
      <g id="Grupo_10939" data-name="Grupo 10939" transform="translate(2.5 13)">
        <path id="Trazado_82172" data-name="Trazado 82172" d="M21.727,56.6A2.824,2.824,0,0,0,19.1,59.556c0,.505,1.187.96,2.627.96s2.627-.429,2.627-.96A2.824,2.824,0,0,0,21.727,56.6Z" transform="translate(-14.906 -45.585)" fill="#005eb8"/>
        <circle id="Elipse_6256" data-name="Elipse 6256" cx="1.415" cy="1.415" r="1.415" transform="translate(5.406 7.251)" fill="#005eb8"/>
        <path id="Trazado_82173" data-name="Trazado 82173" d="M24.049,19.4h-5v.379A2.146,2.146,0,0,1,16.9,21.926H12.1a2.146,2.146,0,0,1-2.147-2.147V19.4h-5A2.469,2.469,0,0,0,2.5,21.851V34a2.469,2.469,0,0,0,2.451,2.451h19.1A2.469,2.469,0,0,0,26.5,34V21.851A2.469,2.469,0,0,0,24.049,19.4ZM9.321,33.674a6.259,6.259,0,0,1-2.3-.379C5.936,32.84,5.759,32.158,5.759,31.8a3.878,3.878,0,0,1,2.046-3.512A2.334,2.334,0,0,1,6.972,26.5a2.349,2.349,0,1,1,3.865,1.794A3.936,3.936,0,0,1,12.883,31.8C12.883,33.067,11.089,33.674,9.321,33.674Zm13.187-.758H15.889a.48.48,0,1,1,0-.96h6.619a.48.48,0,1,1,0,.96Zm0-3.688H15.889a.48.48,0,1,1,0-.96h6.619a.48.48,0,0,1,.48.48A.5.5,0,0,1,22.508,29.227Zm0-3.714H15.889a.48.48,0,1,1,0-.96h6.619a.48.48,0,1,1,0,.96Z" transform="translate(-2.5 -17.783)" fill="#005eb8"/>
        <path id="Trazado_82174" data-name="Trazado 82174" d="M36.913,16.208h4.8A1.23,1.23,0,0,0,42.925,15v-.783A1.23,1.23,0,0,0,41.713,13h-4.8A1.23,1.23,0,0,0,35.7,14.213V15A1.2,1.2,0,0,0,36.913,16.208Z" transform="translate(-27.313 -13)" fill="#005eb8"/>
      </g>
    </g>
    <rect id="Rect치ngulo_8735" data-name="Rect치ngulo 8735" width="24" height="24" fill="none"/>
  </g>
  <rect id="Rect치ngulo_8786" data-name="Rect치ngulo 8786" width="40" height="40" fill="none"/>
</svg>
