<svg id="ic_img_reservation" xmlns="http://www.w3.org/2000/svg" width="156.278" height="138.126" viewBox="0 0 156.278 138.126">
  <ellipse id="Elipse_6356" data-name="Elipse 6356" cx="78.139" cy="8.493" rx="78.139" ry="8.493" transform="translate(0 121.139)" fill="#a0abbe"/>
  <g id="Grupo_18104" data-name="Grupo 18104" transform="translate(11.821)">
    <ellipse id="Elipse_6355" data-name="Elipse 6355" cx="66.248" cy="66.248" rx="66.248" ry="66.248" transform="translate(0)" fill="#fff"/>
    <g id="sand-watch" transform="translate(35.176 32.207)">
      <path id="Trazado_84009" data-name="Trazado 84009" d="M76.638,27.381V8.787h3.31A2.659,2.659,0,0,0,82.6,6.131V2.659A2.66,2.66,0,0,0,79.948,0H22.073a2.66,2.66,0,0,0-2.656,2.656V6.128a2.659,2.659,0,0,0,2.656,2.659h3.31V27.382A8.291,8.291,0,0,0,28.31,33.71L42,45.353,28.31,57a8.291,8.291,0,0,0-2.927,6.328V81.92h-3.31a2.659,2.659,0,0,0-2.656,2.656v3.472a2.66,2.66,0,0,0,2.656,2.659H79.948A2.66,2.66,0,0,0,82.6,88.051V84.579a2.659,2.659,0,0,0-2.656-2.656h-3.31v-18.6A8.291,8.291,0,0,0,73.711,57L60.017,45.353,73.711,33.709a8.291,8.291,0,0,0,2.927-6.328ZM21.9,6.131V2.658a.176.176,0,0,1,.176-.176H79.948a.176.176,0,0,1,.176.176V6.131a.176.176,0,0,1-.176.176H22.073a.176.176,0,0,1-.176-.176ZM80.124,84.578V88.05a.176.176,0,0,1-.176.176H22.073a.176.176,0,0,1-.176-.176V84.578a.176.176,0,0,1,.176-.176H79.948a.176.176,0,0,1,.176.174ZM72.1,31.818,57.3,44.409a1.24,1.24,0,0,0,0,1.889L72.1,58.889a5.819,5.819,0,0,1,2.055,4.438V81.92h-46.3V63.326a5.819,5.819,0,0,1,2.056-4.439L44.722,46.3a1.24,1.24,0,0,0,0-1.889L29.916,31.818a5.819,5.819,0,0,1-2.055-4.438V8.787h46.3V27.382A5.819,5.819,0,0,1,72.1,31.818Z" transform="translate(-19.417 0)" fill="#a0abbe"/>
    </g>
    <text id="z" transform="translate(94.018 77.44)" fill="#a0abbe" font-size="19" font-family="SFProDisplay-Regular, SF Pro Display"><tspan x="-4.444" y="0">z</tspan></text>
    <text id="z-2" data-name="z" transform="translate(105.94 71.479)" fill="#a0abbe" font-size="19" font-family="SFProDisplay-Regular, SF Pro Display"><tspan x="-4.444" y="0">z</tspan></text>
    <text id="z-3" data-name="z" transform="translate(117.862 65.517)" fill="#a0abbe" font-size="19" font-family="SFProDisplay-Regular, SF Pro Display"><tspan x="-4.444" y="0">z</tspan></text>
    <path id="Trazado_84012" data-name="Trazado 84012" d="M445.9,1366.212l-17.42,14.762a1.46,1.46,0,0,0-.516,1.113v32.132a1.462,1.462,0,0,0,1.464,1.461h12.929a3.561,3.561,0,0,1,3.543,3.571v3.6H408v-3.594a3.571,3.571,0,0,1,3.553-3.58H424.47a1.462,1.462,0,0,0,1.466-1.459v-32.135a1.461,1.461,0,0,0-.516-1.113L408,1366.213v-2.665a3.558,3.558,0,0,1,3.56-3.548h30.78a3.557,3.557,0,0,1,3.559,3.547Z" transform="translate(-360.692 -1312.352)" fill="#a0abbe" stroke="#a0abbe" stroke-miterlimit="10" stroke-width="3"/>
  </g>
</svg>
