<svg id="ic_reservation" xmlns="http://www.w3.org/2000/svg" width="37" height="37" viewBox="0 0 37 37">
  <path id="info" d="M9.7,0a9.7,9.7,0,1,0,9.7,9.7A9.711,9.711,0,0,0,9.7,0Zm0,4.042a.808.808,0,1,1-.808.808A.809.809,0,0,1,9.7,4.042Zm1.819,11.317H7.882a.808.808,0,0,1,0-1.617H8.892V8.892H8.286a.808.808,0,1,1,0-1.617H9.7a.808.808,0,0,1,.808.808v5.659h1.011a.808.808,0,1,1,0,1.617Zm0,0" transform="translate(9 9)" fill="#023789"/>
  <rect id="Rectángulo_10342" data-name="Rectángulo 10342" width="37" height="37" fill="none"/>
</svg>
