<svg id="ic_logo_kpmg" xmlns="http://www.w3.org/2000/svg" width="102.429" height="41.14" viewBox="0 0 102.429 41.14">
  <path id="Trazado_84432" data-name="Trazado 84432" d="M215.452,145.376H210.13l.878-3.519H200.347l-.877,3.519h-5.153v-.722c.079-.4.149-.813.249-1.257.937-3.795,3.429-7.545,7.738-7.545,1.7,0,3.4.65,3.168,3.009h6.345a5.63,5.63,0,0,0-.529-4.7c-1.352-1.873-4.077-2.624-7.608-2.624a17.257,17.257,0,0,0-9.363,2.473V114.869h21.136Zm-12.471,5.156a20.241,20.241,0,0,1-3.554.364c-3.047,0-5.166-1.415-5.212-4.719h9.845ZM190.8,133.106l-.011,4.373a17.657,17.657,0,0,0-2.815,6.048,12.319,12.319,0,0,0-.337,1.849h-3.1l2.654-12.595-8.935-.009-8,12.6h-.582V114.869H190.8Zm-11.8,12.27h-3.178l4.81-7.568Zm-12.827-12.624h-5.287l-3.629,12.624h-5.605a7.535,7.535,0,0,0,5.134-6.068c.442-2.327.231-3.858-.717-5-1.423-1.707-4.277-1.56-6.813-1.56l-4.192.008V114.869h21.108ZM162.8,145.376l2.225-7.9.078,7.9Zm-15.373-3h-.007c-.2.011-.41.029-.647.029-.307,0-.548.011-.776.011l-1.352-.011.625-2.311.3-1.148.709-2.688c.314,0,.622-.011.916-.011h1.048c1.787,0,2.917.1,3.327.675.314.432.275,1.178-.1,2.312-.638,1.953-1.444,2.945-4.042,3.143m-5.873-8.5-.33,1.1L138.2,145.023l-.119.353h-9.945l-.776-1.638,10.722-10.957h-6.887l-8.385,9.032,2.716-9.032h-5.079V114.869h21.108Zm51.965-19.812v20.529a13.924,13.924,0,0,0-1.9,1.826V114.059H168.879v18.693H167V114.059H144.254v18.722h-1.883V114.059H119.627V135.4l-5.8,19.347h5.1l2.564-8.568h.737l4.233,8.568h6.167l-4.108-8.568h9.319l-2.586,8.568h5.577l2.552-8.545h1.224v-.024h12.415l-2.462,8.543h5.622l2.387-8.543h2.53l.069,8.543h4.716l5.415-8.543h3.544l-1.829,8.543h5.536l1.8-8.543h3.2a8.241,8.241,0,0,0,2.307,6.673c2.144,1.971,5.439,2.348,7.878,2.348a47.066,47.066,0,0,0,10.282-1.265l1.918-7.757h6.319V114.059Z" transform="translate(-113.825 -114.059)" fill="#fff"/>
</svg>
