<svg id="Logo" xmlns="http://www.w3.org/2000/svg" width="710.647" height="360" viewBox="0 0 710.647 360">
  <text id="KPMG_One_Key" data-name="KPMG
One Key" transform="translate(292.647 181)" fill="#fff" font-size="206" font-family="KPMG-Light, KPMG" font-weight="300"><tspan x="0" y="0">KPMG</tspan><tspan x="0" y="154">One Key</tspan></text>
  <g id="Grupo_15761" data-name="Grupo 15761" transform="translate(0 56.791)">
    <g id="Grupo_15756" data-name="Grupo 15756" transform="translate(0 98.173)">
      <g id="Grupo_15755" data-name="Grupo 15755">
        <path id="Trazado_84366" data-name="Trazado 84366" d="M434.64,579.036l-.216-85.594-74.749-43.717a11.424,11.424,0,1,0-3.835,6.557l71,41.523.205,81.25a11.424,11.424,0,1,0,7.6-.019Z" transform="translate(-336.958 -436.144)" fill="#0091da"/>
        <path id="Trazado_84367" data-name="Trazado 84367" d="M393.942,598.133l.026-37.506-34.477-20.818a11.425,11.425,0,1,0-3.927,6.5l30.8,18.6-.023,33.216a11.425,11.425,0,1,0,7.6.005Z" transform="translate(-336.887 -477.873)" fill="#005eb8"/>
      </g>
    </g>
    <path id="Trazado_84368" data-name="Trazado 84368" d="M606.664,350.354a11.418,11.418,0,0,0-21.119,7.792l-100.21,57.781a17.172,17.172,0,0,0-25.372,0l-100.21-57.781a11.424,11.424,0,1,0-3.794,6.581l100.236,57.8a17.194,17.194,0,0,0,12.626,21.77l-.032,116.319a11.425,11.425,0,1,0,7.6,0l.032-116.307A17.194,17.194,0,0,0,489.1,422.523l100.236-57.8a11.418,11.418,0,0,0,17.325-14.374ZM472.649,438.943a11.414,11.414,0,1,1,11.414-11.414A11.414,11.414,0,0,1,472.649,438.943Z" transform="translate(-336.988 -295.508)" fill="#fff"/>
    <g id="Grupo_15758" data-name="Grupo 15758" transform="translate(165.987 98.173)">
      <g id="Grupo_15757" data-name="Grupo 15757">
        <path id="Trazado_84369" data-name="Trazado 84369" d="M750.27,441.8a11.418,11.418,0,0,0-21.071,7.923L654.45,493.442l-.216,85.594a11.424,11.424,0,1,0,7.6.019l.206-81.25,71-41.523A11.418,11.418,0,0,0,750.27,441.8Z" transform="translate(-646.581 -436.144)" fill="#0091da"/>
        <path id="Trazado_84370" data-name="Trazado 84370" d="M785.474,531.591a11.418,11.418,0,0,0-20.957,8.218L730.04,560.627l.026,37.506a11.424,11.424,0,1,0,7.6-.005l-.023-33.216,30.8-18.6a11.418,11.418,0,0,0,17.031-14.721Z" transform="translate(-681.785 -477.873)" fill="#005eb8"/>
      </g>
    </g>
    <g id="Grupo_15760" data-name="Grupo 15760" transform="translate(42.658)">
      <g id="Grupo_15759" data-name="Grupo 15759">
        <path id="Trazado_84371" data-name="Trazado 84371" d="M602.2,304.053a11.418,11.418,0,0,0-21.134,7.751l-70.467,40.447-71.46-40.725a11.424,11.424,0,1,0-3.761,6.6L510.608,361l74.235-42.61a11.418,11.418,0,0,0,17.352-14.34Z" transform="translate(-416.477 -273.901)" fill="#0091da"/>
        <path id="Trazado_84372" data-name="Trazado 84372" d="M598.339,259.2a11.418,11.418,0,0,0-21.109,7.819l-28.755,16.628-31.51-17.378a11.425,11.425,0,1,0-3.669,6.652l35.268,19.449L581.033,273.6a11.418,11.418,0,0,0,17.307-14.4Z" transform="translate(-452.579 -252.975)" fill="#005eb8"/>
      </g>
    </g>
  </g>
</svg>
