<svg xmlns="http://www.w3.org/2000/svg" xmlns:xlink="http://www.w3.org/1999/xlink" width="75" height="75" viewBox="0 0 75 75">
  <defs>
    <filter id="Elipse_6356" x="0" y="0" width="75" height="75" filterUnits="userSpaceOnUse">
      <feOffset dy="3" input="SourceAlpha"/>
      <feGaussianBlur stdDeviation="3" result="blur"/>
      <feFlood flood-opacity="0.161"/>
      <feComposite operator="in" in2="blur"/>
      <feComposite in="SourceGraphic"/>
    </filter>
  </defs>
  <g id="ic_notification" transform="translate(9 6)">
    <g transform="matrix(1, 0, 0, 1, -9, -6)" filter="url(#Elipse_6356)">
      <circle id="Elipse_6356-2" data-name="Elipse 6356" cx="28.5" cy="28.5" r="28.5" transform="translate(9 6)" fill="#0691da" opacity="0.464"/>
    </g>
    <g id="noun_notification_2377377" transform="translate(15.088 13.412)">
      <g id="Grupo_11509" data-name="Grupo 11509" transform="translate(0 0)">
        <path id="Trazado_82294" data-name="Trazado 82294" d="M30.3,24.4a12.332,12.332,0,0,1-3.737-8.854V13.21a9.161,9.161,0,0,0-8.138-9.028V4.11a1.11,1.11,0,1,0-2.22,0v.072A9.161,9.161,0,0,0,8.069,13.21v2.34A12.332,12.332,0,0,1,4.333,24.4a1.11,1.11,0,0,0,.777,1.9H29.524a1.11,1.11,0,0,0,.777-1.9Z" transform="translate(-4.001 -3)" fill="#fdfeff"/>
        <path id="Trazado_82295" data-name="Trazado 82295" d="M16.329,28.247a3.968,3.968,0,0,1-2.813-1.162l-.191-.192A1.11,1.11,0,0,1,14.11,25h4.439a1.11,1.11,0,0,1,.786,1.893l-.19.19A3.97,3.97,0,0,1,16.329,28.247Z" transform="translate(-3.013 -0.585)" fill="#fdfeff"/>
      </g>
    </g>
  </g>
</svg>
