<svg id="ic_office_type" xmlns="http://www.w3.org/2000/svg" xmlns:xlink="http://www.w3.org/1999/xlink" width="64" height="64.068" viewBox="0 0 64 64.068">
  <defs>
    <linearGradient id="linear-gradient" x1="0.157" y1="0.08" x2="1.066" y2="1.092" gradientUnits="objectBoundingBox">
      <stop offset="0" stop-color="#016f6e"/>
      <stop offset="0.389" stop-color="#167b7a" stop-opacity="0.431"/>
      <stop offset="1" stop-color="#fff" stop-opacity="0"/>
    </linearGradient>
  </defs>
  <g id="Grupo_11733" data-name="Grupo 11733" transform="translate(6734 -6811)">
    <path id="Rect치ngulo_8831" data-name="Rect치ngulo 8831" d="M10,0H64a0,0,0,0,1,0,0V64a0,0,0,0,1,0,0H10A10,10,0,0,1,0,54V10A10,10,0,0,1,10,0Z" transform="translate(-6734 6811)" fill="#00a3a1"/>
    <path id="Uni칩n_4" data-name="Uni칩n 4" d="M25.477,53.279,5.328,29.915a5.5,5.5,0,0,1-3.644-4.369L.019,14.746a1.275,1.275,0,1,1,2.517-.406L4.2,25.181a2.967,2.967,0,0,0,2.924,2.478h6.5a1.3,1.3,0,0,1,1.217.812h1.6l-.258-2.4H7.693A1.923,1.923,0,0,1,5.785,24.45L4.2,14.217a3.937,3.937,0,0,1,.894-3.127,3.829,3.829,0,0,1,2.923-1.34h.609a3.816,3.816,0,0,1,2.111.65l3.208,2.111a5.746,5.746,0,0,0,3.127.934h3.492a1.624,1.624,0,1,1,0,3.249H17.074a9.106,9.106,0,0,1-4.589-1.3l.488,6.822h4.655c-.226-.456-.464-.929-.716-1.421a1.3,1.3,0,1,1,0-2.6H28.633v-1.5h-.554V15.557a.581.581,0,0,1,.554-.568V8.406l-.108-.076-.487,3.939a.545.545,0,0,1-.609.487l-1.462-.162a.542.542,0,0,1-.488-.569L26.779.492a.545.545,0,0,1,.609-.487L28.85.167a.546.546,0,0,1,.488.609l-.076.719L52.307,28.471V53.279Zm-5.14-24.809-.031-.089.009.089ZM4.08,4.432A4.223,4.223,0,1,1,8.3,8.654,4.223,4.223,0,0,1,4.08,4.432Z" transform="translate(-6722.681 6821.79)" fill="url(#linear-gradient)"/>
    <g id="noun_Office_1754109" transform="translate(-6720.923 6825.547)">
      <g id="Grupo_11725" data-name="Grupo 11725" transform="translate(0 0)">
        <path id="Trazado_82480" data-name="Trazado 82480" d="M68.987,15.081l1.462.162a.545.545,0,0,0,.609-.487l.487-3.939.69.487a2.465,2.465,0,0,1,1.056,1.99v4.183H71.667a.581.581,0,0,0-.568.568v1.137H77.23V18.045a.555.555,0,0,0-.569-.568H75.2V13.294A4.336,4.336,0,0,0,73.332,9.72l-1.543-1.1.568-5.36a.545.545,0,0,0-.487-.609l-1.462-.162a.545.545,0,0,0-.609.487L68.5,14.512A.541.541,0,0,0,68.987,15.081Z" transform="translate(-43.021 -2.487)" fill="#abb4c4"/>
        <ellipse id="Elipse_6277" data-name="Elipse 6277" cx="4.223" cy="4.223" rx="4.223" ry="4.223" transform="translate(4.079 0.208)" fill="#abb4c4"/>
        <path id="Trazado_82481" data-name="Trazado 82481" d="M31.674,40.672a1.929,1.929,0,0,0-1.909-1.705H24.811l-.487-6.822a9.1,9.1,0,0,0,4.589,1.3H32.4a1.624,1.624,0,1,0,0-3.249H28.912a5.751,5.751,0,0,1-3.127-.934L22.578,27.15a3.814,3.814,0,0,0-2.112-.65h-.609a3.828,3.828,0,0,0-2.924,1.34,3.937,3.937,0,0,0-.893,3.127L17.624,41.2a1.924,1.924,0,0,0,1.909,1.624h8.487l1.137,10.558a1.929,1.929,0,0,0,1.909,1.705h.2a1.916,1.916,0,0,0,1.705-2.112Z" transform="translate(-11.839 -16.749)" fill="#abb4c4"/>
        <path id="Trazado_82482" data-name="Trazado 82482" d="M19.376,49.547h-6.5A2.966,2.966,0,0,1,9.955,47.07L8.29,36.228a1.275,1.275,0,1,0-2.518.406l1.665,10.8a5.5,5.5,0,0,0,5.441,4.67h6.5a1.308,1.308,0,0,0,1.3-1.3A1.274,1.274,0,0,0,19.376,49.547Z" transform="translate(-5.754 -21.889)" fill="#abb4c4"/>
        <path id="Trazado_82483" data-name="Trazado 82483" d="M63.245,47.3H45.5a1.3,1.3,0,1,0,0,2.6H56.626V65.167h-2.6a1.3,1.3,0,1,0,0,2.6h9.218a1.308,1.308,0,0,0,1.3-1.3V48.6A1.283,1.283,0,0,0,63.245,47.3Z" transform="translate(-28.588 -29.103)" fill="#abb4c4"/>
      </g>
    </g>
    <g id="noun_Office_1754109-2" data-name="noun_Office_1754109" transform="translate(-6722.681 6823.79)">
      <g id="Grupo_11725-2" data-name="Grupo 11725" transform="translate(0 0)">
        <path id="Trazado_82480-2" data-name="Trazado 82480" d="M68.987,15.081l1.462.162a.545.545,0,0,0,.609-.487l.487-3.939.69.487a2.465,2.465,0,0,1,1.056,1.99v4.183H71.667a.581.581,0,0,0-.568.568v1.137H77.23V18.045a.555.555,0,0,0-.569-.568H75.2V13.294A4.336,4.336,0,0,0,73.332,9.72l-1.543-1.1.568-5.36a.545.545,0,0,0-.487-.609l-1.462-.162a.545.545,0,0,0-.609.487L68.5,14.512A.541.541,0,0,0,68.987,15.081Z" transform="translate(-43.021 -2.487)" fill="#fff"/>
        <ellipse id="Elipse_6277-2" data-name="Elipse 6277" cx="4.223" cy="4.223" rx="4.223" ry="4.223" transform="translate(4.079 0.208)" fill="#fff"/>
        <path id="Trazado_82481-2" data-name="Trazado 82481" d="M31.674,40.672a1.929,1.929,0,0,0-1.909-1.705H24.811l-.487-6.822a9.1,9.1,0,0,0,4.589,1.3H32.4a1.624,1.624,0,1,0,0-3.249H28.912a5.751,5.751,0,0,1-3.127-.934L22.578,27.15a3.814,3.814,0,0,0-2.112-.65h-.609a3.828,3.828,0,0,0-2.924,1.34,3.937,3.937,0,0,0-.893,3.127L17.624,41.2a1.924,1.924,0,0,0,1.909,1.624h8.487l1.137,10.558a1.929,1.929,0,0,0,1.909,1.705h.2a1.916,1.916,0,0,0,1.705-2.112Z" transform="translate(-11.839 -16.749)" fill="#fff"/>
        <path id="Trazado_82482-2" data-name="Trazado 82482" d="M19.376,49.547h-6.5A2.966,2.966,0,0,1,9.955,47.07L8.29,36.228a1.275,1.275,0,1,0-2.518.406l1.665,10.8a5.5,5.5,0,0,0,5.441,4.67h6.5a1.308,1.308,0,0,0,1.3-1.3A1.274,1.274,0,0,0,19.376,49.547Z" transform="translate(-5.754 -21.889)" fill="#fff"/>
        <path id="Trazado_82483-2" data-name="Trazado 82483" d="M63.245,47.3H45.5a1.3,1.3,0,1,0,0,2.6H56.626V65.167h-2.6a1.3,1.3,0,1,0,0,2.6h9.218a1.308,1.308,0,0,0,1.3-1.3V48.6A1.283,1.283,0,0,0,63.245,47.3Z" transform="translate(-28.588 -29.103)" fill="#fff"/>
      </g>
    </g>
  </g>
</svg>
