<svg id="ic_people" xmlns="http://www.w3.org/2000/svg" width="40" height="40" viewBox="0 0 40 40">
  <g id="Grupo_11743" data-name="Grupo 11743" transform="translate(-7.887 -9.6)">
    <circle id="Elipse_6278" data-name="Elipse 6278" cx="3.858" cy="3.858" r="3.858" transform="translate(23.613 16.669)" fill="#00a3a1"/>
    <path id="Trazado_82513" data-name="Trazado 82513" d="M17.038,26.048h0a2.2,2.2,0,0,0-.351-.307l-3.9-3.9a1.689,1.689,0,1,0-2.411,2.367L15.5,29.379V45.116a1.741,1.741,0,0,0,1.71,1.71,1.665,1.665,0,0,0,1.666-1.666V39.987a.484.484,0,1,1,.964,0v5.085a1.75,1.75,0,0,0,1.753,1.71,1.493,1.493,0,0,0,1.052-.395V32.8l-4.822-4.91A2.454,2.454,0,0,1,17.038,26.048Z" transform="translate(0 -4.338)" fill="#00a3a1"/>
    <path id="Trazado_82514" data-name="Trazado 82514" d="M73.118,21.768a1.667,1.667,0,0,0-2.367,0l-3.945,3.945a2.505,2.505,0,0,1-.351.307,2.62,2.62,0,0,1-.789,1.885L60.8,32.771V46.36a1.8,1.8,0,0,0,1.14.395,1.665,1.665,0,0,0,1.666-1.666V39.96a.484.484,0,1,1,.964,0v5.085a1.741,1.741,0,0,0,1.71,1.71,1.665,1.665,0,0,0,1.666-1.666V29.308l5.173-5.173A1.708,1.708,0,0,0,73.118,21.768Z" transform="translate(-28.595 -4.311)" fill="#00a3a1"/>
    <path id="Trazado_82515" data-name="Trazado 82515" d="M46.806,28.868a1.667,1.667,0,0,0-2.367,0l-3.945,3.945a3.863,3.863,0,0,1-5.436,0l-3.9-3.9A1.705,1.705,0,0,0,28.7,31.279l5.129,5.173V52.189a1.78,1.78,0,0,0,1.753,1.71,1.7,1.7,0,0,0,1.71-1.666V47.06a.491.491,0,0,1,.438-.526c.263,0,.438.219.438.526v5.085a1.78,1.78,0,0,0,1.753,1.71,1.7,1.7,0,0,0,1.71-1.666V36.408l5.129-5.173A1.709,1.709,0,0,0,46.806,28.868Z" transform="translate(-10.305 -8.298)" fill="#00a3a1"/>
    <path id="Trazado_82516" data-name="Trazado 82516" d="M24.553,20.714a2.592,2.592,0,0,1,4.208-.7l.438.438a3.953,3.953,0,0,0,1.008-1.4.623.623,0,0,0,.088-.263,3.8,3.8,0,0,0,.219-1.227,3.858,3.858,0,1,0-7.715,0A3.969,3.969,0,0,0,24.553,20.714Z" transform="translate(-7.252 -0.056)" fill="#00a3a1"/>
    <path id="Trazado_82517" data-name="Trazado 82517" d="M59.851,18.948a3.953,3.953,0,0,0,1.008,1.4l.438-.438a2.647,2.647,0,0,1,3.682,0,2.88,2.88,0,0,1,.526.745,3.856,3.856,0,1,0-6.006-3.2,3.8,3.8,0,0,0,.219,1.227Z" transform="translate(-27.865)" fill="#00a3a1"/>
  </g>
  <rect id="Rectángulo_8838" data-name="Rectángulo 8838" width="40" height="40" fill="none"/>
</svg>
