<svg id="ic_person" xmlns="http://www.w3.org/2000/svg" width="40" height="40" viewBox="0 0 40 40">
  <g id="Grupo_11640" data-name="Grupo 11640" transform="translate(9 8)">
    <path id="Trazado_82175" data-name="Trazado 82175" d="M34.464,33.2a3.312,3.312,0,0,0-.837-1.748q-.762-.882-5.8-2.824-1.614-.747-1.614-1.7l-.045-.732a6.584,6.584,0,0,0,1.718-3.018,1.4,1.4,0,0,0,.822-1.15q.852-1.718-.3-2.346.9-3.063-.209-4.572l-2.48-3.362q0,.822-.359.657.194-.508,0-.732a1,1,0,0,1-.792.657l.329-.538a1.11,1.11,0,0,1-.956.478q-.179-.224.1-.687a2,2,0,0,0-.583.538q-.344-.06-.254-.747-.284.329-.6.717-.6-.045-.045-.792-.672.164-.762.672a.763.763,0,0,1-.284-.613,14.7,14.7,0,0,1-1.883,1.927l-1.554,1.419a3.62,3.62,0,0,0-.926,2.674,5.275,5.275,0,0,0,.433,2.3q-1.136.732-.344,2.376.179.956.867,1.031A6.712,6.712,0,0,0,19.927,26.2a2,2,0,0,1-1.091,2.122,13.386,13.386,0,0,1-1.912.837l-2,.807a7.135,7.135,0,0,0-2.7,1.778,3.843,3.843,0,0,0-.642,2.689H34.449A2.991,2.991,0,0,0,34.464,33.2Z" transform="translate(-11.543 -11.3)" fill="#005eb8"/>
  </g>
  <rect id="Rectángulo_8787" data-name="Rectángulo 8787" width="40" height="40" fill="none"/>
</svg>
