<svg id="ic_profile" xmlns="http://www.w3.org/2000/svg" width="37" height="37" viewBox="0 0 37 37">
  <g id="Ic_userbo" transform="translate(0 -0.225)">
    <g id="noun_admin_371299" transform="translate(8.476 7.714)">
      <path id="Trazado_83875" data-name="Trazado 83875" d="M28.978,15.69a3.134,3.134,0,0,0-1.242-1.169,4.233,4.233,0,0,0-2.558-.548,3.17,3.17,0,0,0-1.023.183h0a4.765,4.765,0,0,0-1.133.585,5.588,5.588,0,0,0-1.133.95,4.618,4.618,0,0,0-1.242,2.193,4.208,4.208,0,0,0,.11,2.412c-.4-.037-.877.183-.439,1.791.329,1.169.621,1.5.877,1.5a6.662,6.662,0,0,0,.694,2.083V27.2a.2.2,0,0,1-.11.183,34.71,34.71,0,0,0-5.518,3.435,3.516,3.516,0,0,0-1.352,2.741v1.608a.655.655,0,0,0,.658.658H35.08a.655.655,0,0,0,.658-.658V33.559a3.409,3.409,0,0,0-1.352-2.741A33.364,33.364,0,0,0,28.9,27.384a.2.2,0,0,1-.11-.183V25.447a6.064,6.064,0,0,0,.512-1.644c.219.146.621.073,1.06-1.462.365-1.242.146-1.681-.183-1.754C31.207,15.836,28.978,15.69,28.978,15.69Z" transform="translate(-14.909 -13.96)" fill="#959595"/>
    </g>
    <rect id="Rect치ngulo_9074" data-name="Rect치ngulo 9074" width="37" height="37" transform="translate(0 0.225)" fill="none"/>
  </g>
  <rect id="Rect치ngulo_10341" data-name="Rect치ngulo 10341" width="30" height="30" transform="translate(4 4)" fill="none"/>
</svg>
