<svg id="ic_reservation2" xmlns="http://www.w3.org/2000/svg" width="37" height="37" viewBox="0 0 37 37">
  <g id="noun_Calendar_2080626" transform="translate(8 9)">
    <g id="Grupo_11508" data-name="Grupo 11508" transform="translate(0 0)">
      <path id="Trazado_82288" data-name="Trazado 82288" d="M40.634,60.3H39.287a.488.488,0,0,0-.487.487v.828a.488.488,0,0,0,.487.487h1.347a.488.488,0,0,0,.487-.487v-.828A.5.5,0,0,0,40.634,60.3Z" transform="translate(-30.735 -47.78)" fill="#023789"/>
      <path id="Trazado_82289" data-name="Trazado 82289" d="M19.234,60.3H17.887a.488.488,0,0,0-.487.487v.828a.488.488,0,0,0,.487.487h1.347a.488.488,0,0,0,.487-.487v-.828A.5.5,0,0,0,19.234,60.3Z" transform="translate(-14.09 -47.78)" fill="#023789"/>
      <path id="Trazado_82290" data-name="Trazado 82290" d="M40.634,41.6H39.287a.488.488,0,0,0-.487.487v.828a.488.488,0,0,0,.487.487h1.347a.488.488,0,0,0,.487-.487v-.828A.5.5,0,0,0,40.634,41.6Z" transform="translate(-30.735 -33.195)" fill="#023789"/>
      <path id="Trazado_82291" data-name="Trazado 82291" d="M19.234,41.6H17.887a.488.488,0,0,0-.487.487v.828a.488.488,0,0,0,.487.487h1.347a.488.488,0,0,0,.487-.487v-.828A.5.5,0,0,0,19.234,41.6Z" transform="translate(-14.09 -33.195)" fill="#023789"/>
      <path id="Trazado_82292" data-name="Trazado 82292" d="M62.034,41.6H60.687a.488.488,0,0,0-.487.487v.828a.488.488,0,0,0,.487.487h1.347a.488.488,0,0,0,.487-.487v-.828A.5.5,0,0,0,62.034,41.6Z" transform="translate(-47.381 -33.195)" fill="#023789"/>
      <path id="Trazado_82293" data-name="Trazado 82293" d="M21.022,15.72V7.258a2.131,2.131,0,0,0-.554-1.428V5.809h-.021a2.176,2.176,0,0,0-1.62-.725h-1.6V4.125A.719.719,0,0,0,16.5,3.4H15.417a.719.719,0,0,0-.725.725v.959H8.809V4.125A.719.719,0,0,0,8.084,3.4H7a.719.719,0,0,0-.725.725v.959h-1.6a2.176,2.176,0,0,0-1.62.725h0V5.83A2.131,2.131,0,0,0,2.5,7.258V18.874a2.183,2.183,0,0,0,2.174,2.174h10.21a4.174,4.174,0,1,0,6.139-5.329Zm-6.629,3.368a4.139,4.139,0,0,0,.043.512H4.674a.719.719,0,0,1-.725-.725V10.008h15.6v5.03a3.749,3.749,0,0,0-.98-.128A4.184,4.184,0,0,0,14.394,19.088Zm5.9-.426-1.726,1.854a.566.566,0,0,1-.81,0l-1.023-1.108a.543.543,0,0,1,.789-.746l.639.682,1.322-1.428a.541.541,0,0,1,.767-.021A.524.524,0,0,1,20.3,18.661Z" transform="translate(-2.5 -3.4)" fill="#023789"/>
    </g>
  </g>
  <rect id="Rectángulo_9074" data-name="Rectángulo 9074" width="37" height="37" fill="none"/>
</svg>
