<svg xmlns="http://www.w3.org/2000/svg" width="131.082" height="115.856" viewBox="0 0 131.082 115.856">
  <g id="Grupo_18105" data-name="Grupo 18105" transform="translate(-147.581 -302.144)">
    <g id="Grupo_18085" data-name="Grupo 18085" transform="translate(8 103)">
      <g id="Grupo_15737" data-name="Grupo 15737">
        <ellipse id="Elipse_6355" data-name="Elipse 6355" cx="55.567" cy="55.567" rx="55.567" ry="55.567" transform="translate(149.496 199.144)" fill="#fff"/>
        <ellipse id="Elipse_6356" data-name="Elipse 6356" cx="65.541" cy="7.124" rx="65.541" ry="7.124" transform="translate(139.581 300.752)" fill="#a0abbe"/>
      </g>
    </g>
    <g id="Grupo_18086" data-name="Grupo 18086" transform="translate(-79.348 608.905)">
      <path id="Trazado_84462" data-name="Trazado 84462" d="M312.862-255.614c-2.038,0-4.076.019-6.114-.005a7.575,7.575,0,0,1-7.647-5.5c-1.376-4.059-2.649-8.153-3.952-12.237-.325-1.02-.72-1.962-1.992-1.976s-1.688.931-2.014,1.947c-1.261,3.928-2.545,7.849-3.794,11.781-1.265,3.981-3.894,5.963-8.106,5.989-4.075.026-8.151.007-12.227,0-1,0-1.971.05-2.362,1.211-.4,1.2.278,1.9,1.163,2.54,3.3,2.393,6.593,4.79,9.863,7.221,3.471,2.581,4.374,5.427,3.062,9.582q-1.84,5.825-3.74,11.63c-.354,1.082-.585,2.1.531,2.881,1.064.741,1.906.158,2.759-.473,3.275-2.424,6.543-4.86,9.85-7.239,3.54-2.547,6.36-2.566,9.9-.068,3.372,2.382,6.71,4.811,10.045,7.244.888.648,1.774,1.082,2.775.327s.795-1.737.437-2.763c-.883-2.529-1.732-5.07-2.572-7.613-.643-1.95-.082-3.441,1.474-4.019,1.631-.607,3.185.228,3.842,2.138.942,2.736,1.891,5.472,2.736,8.238,1.1,3.591.078,6.727-2.709,8.714-2.724,1.942-5.973,1.885-8.977-.241-3.238-2.292-6.437-4.64-9.649-6.968-2.141-1.552-2.425-1.571-4.514-.044-3.2,2.341-6.378,4.721-9.594,7.044-3.08,2.225-6.3,2.312-9.1.319s-3.834-5.108-2.731-8.708q1.836-5.993,3.866-11.926a2.808,2.808,0,0,0-1.223-3.69c-3.207-2.241-6.346-4.581-9.482-6.923-3.419-2.553-4.55-5.529-3.448-8.876,1.131-3.435,3.917-5.239,8.127-5.246,3.808-.006,7.615,0,11.423,0,2.373,0,2.628-.168,3.345-2.383,1.3-4.027,2.489-8.1,3.9-12.086a7.445,7.445,0,0,1,10.855-4.219,7.7,7.7,0,0,1,3.613,4.73c1.253,3.931,2.568,7.844,3.761,11.793a2.694,2.694,0,0,0,3.034,2.191c4.02-.081,8.044-.038,12.066-.022,3.935.016,6.694,1.866,7.833,5.214,1.1,3.227-.011,6.317-3.171,8.692-2.229,1.675-4.484,3.315-6.745,4.945-1.592,1.148-3.251.958-4.244-.435-.955-1.341-.667-2.885.874-4.058,2.218-1.688,4.485-3.313,6.739-4.954.827-.6,1.49-1.272,1.142-2.41-.352-1.153-1.271-1.3-2.3-1.293C317.26-255.6,315.061-255.613,312.862-255.614Z" transform="translate(-0.31)" fill="#a0abbe"/>
      <path id="Trazado_84463" data-name="Trazado 84463" d="M417.387-255.072c-2.4-.034-3.8-2.27-2.8-4.04a16.14,16.14,0,0,1,2.405-3.2,2.537,2.537,0,0,1,3.515-.252,2.6,2.6,0,0,1,.9,3.412,20.392,20.392,0,0,1-2.531,3.307A4.227,4.227,0,0,1,417.387-255.072Z" transform="translate(-105.728 -12.113)" fill="#a0abbe"/>
      <path id="Trazado_84464" data-name="Trazado 84464" d="M298.052-263.008a5.41,5.41,0,0,1,1.548.912,18.482,18.482,0,0,1,2.229,2.915,2.655,2.655,0,0,1-.676,3.574,2.6,2.6,0,0,1-3.631-.192,16.353,16.353,0,0,1-2.41-3.173C294.08-260.805,295.556-263.068,298.052-263.008Z" transform="translate(-24.705 -12.208)" fill="#a0abbe"/>
      <path id="Trazado_84465" data-name="Trazado 84465" d="M451.573-139.5a29.733,29.733,0,0,1-4.087-1.745,2.358,2.358,0,0,1-.776-3.148,2.454,2.454,0,0,1,2.815-1.647,15.965,15.965,0,0,1,4.067,1.388,2.427,2.427,0,0,1,1.228,3.015C454.433-140.3,453.473-139.636,451.573-139.5Z" transform="translate(-127.545 -91.494)" fill="#a0abbe"/>
      <path id="Trazado_84466" data-name="Trazado 84466" d="M266.793-145.45c-.135,2.606-2.359,2.688-4.08,3.385a2.977,2.977,0,0,1-3.765-.792,2.7,2.7,0,0,1,1.05-4.177,17.543,17.543,0,0,1,3.325-1.144A2.731,2.731,0,0,1,266.793-145.45Z" transform="translate(0 -90.02)" fill="#a0abbe"/>
      <path id="Trazado_84467" data-name="Trazado 84467" d="M362.457-79.326c0,.533.035,1.069-.007,1.6a2.8,2.8,0,0,1-2.8,2.707,2.8,2.8,0,0,1-2.778-2.732,24.165,24.165,0,0,1,.009-3.2,2.7,2.7,0,0,1,2.7-2.615,2.763,2.763,0,0,1,2.861,2.639c.048.529.007,1.065.007,1.6Z" transform="translate(-66.776 -133.894)" fill="#a0abbe"/>
    </g>
  </g>
</svg>
