<svg id="ic_space_ideas" xmlns="http://www.w3.org/2000/svg" width="109.26" height="92.633" viewBox="0 0 109.26 92.633">
  <path id="Trazado_83956" data-name="Trazado 83956" d="M46.317,0A46.317,46.317,0,1,1,0,46.317,46.317,46.317,0,0,1,46.317,0Z" transform="translate(8.37)" fill="#f4f6fc"/>
  <ellipse id="Elipse_6352" data-name="Elipse 6352" cx="54.63" cy="5.938" rx="54.63" ry="5.938" transform="translate(0 80.757)" fill="#a0abbe"/>
  <path id="Trazado_83938" data-name="Trazado 83938" d="M29.775,47.415h.948v1.891h-.948v.948a2.841,2.841,0,0,0,2.839,2.839,2.841,2.841,0,0,0,2.839,2.839h5.678a2.841,2.841,0,0,0,2.839-2.839,2.841,2.841,0,0,0,2.839-2.839v-.948h-.948V47.415h.948V45.524H29.775Z" transform="translate(16.34 24.982)" fill="#7e7e7e" fill-rule="evenodd"/>
  <path id="Trazado_83939" data-name="Trazado 83939" d="M41.3,25.607a9.474,9.474,0,0,0-9.46,9.46H28.062A13.26,13.26,0,0,1,41.3,21.825Zm0-7.569a17.029,17.029,0,0,0-14.16,26.489,17.309,17.309,0,0,0,2.085,2.544A16.819,16.819,0,0,0,30.6,48.3a8.463,8.463,0,0,1,2.185,5.683v4.73H49.816v-4.73A8.487,8.487,0,0,1,52,48.3a16.867,16.867,0,0,0,1.367-1.227,17.32,17.32,0,0,0,2.086-2.544A17.029,17.029,0,0,0,41.3,18.038Z" transform="translate(13.322 9.899)" fill="#7e7e7e" fill-rule="evenodd"/>
  <path id="Trazado_83940" data-name="Trazado 83940" d="M37.065,6.125H34.082V18.978h2.984Z" transform="translate(18.703 3.361)" fill="#7e7e7e"/>
  <path id="Trazado_83941" data-name="Trazado 83941" d="M62.49,28.067H49.632v2.984H62.49Z" transform="translate(27.237 15.402)" fill="#bac1cc"/>
  <path id="Trazado_83942" data-name="Trazado 83942" d="M25.468,28.067H12.611v2.984H25.468Z" transform="translate(6.92 15.402)" fill="#7e7e7e"/>
  <path id="Trazado_83943" data-name="Trazado 83943" d="M53.836,12.326l-9.092,9.092,2.11,2.11,9.092-9.092Z" transform="translate(24.555 6.764)" fill="#bac1cc"/>
  <path id="Trazado_83944" data-name="Trazado 83944" d="M27.658,38.5l-9.092,9.092,2.11,2.11,9.092-9.092Z" transform="translate(10.189 21.128)" fill="#7e7e7e"/>
  <path id="Trazado_83945" data-name="Trazado 83945" d="M46.852,38.5l-2.11,2.11,9.092,9.092,2.11-2.11Z" transform="translate(24.554 21.13)" fill="#bac1cc"/>
  <path id="Trazado_83946" data-name="Trazado 83946" d="M20.675,12.327l-2.11,2.11,9.092,9.092,2.11-2.11Z" transform="translate(10.188 6.765)" fill="#7e7e7e"/>
  <g id="Grupo_14571" data-name="Grupo 14571" transform="translate(19.531 9.486)">
    <path id="Trazado_83947" data-name="Trazado 83947" d="M29.775,47.415h.948v1.891h-.948v.948a2.841,2.841,0,0,0,2.839,2.839,2.841,2.841,0,0,0,2.839,2.839h5.678a2.841,2.841,0,0,0,2.839-2.839,2.841,2.841,0,0,0,2.839-2.839v-.948h-.948V47.415h.948V45.524H29.775Z" transform="translate(-3.191 15.496)" fill="#a0abbe" fill-rule="evenodd"/>
    <path id="Trazado_83948" data-name="Trazado 83948" d="M41.3,25.607a9.474,9.474,0,0,0-9.46,9.46H28.062A13.26,13.26,0,0,1,41.3,21.825Zm0-7.569a17.029,17.029,0,0,0-14.16,26.489,17.309,17.309,0,0,0,2.085,2.544A16.819,16.819,0,0,0,30.6,48.3a8.463,8.463,0,0,1,2.185,5.683v4.73H49.816v-4.73A8.487,8.487,0,0,1,52,48.3a16.867,16.867,0,0,0,1.367-1.227,17.32,17.32,0,0,0,2.086-2.544A17.029,17.029,0,0,0,41.3,18.038Z" transform="translate(-6.209 0.412)" fill="#a0abbe" fill-rule="evenodd"/>
    <path id="Trazado_83949" data-name="Trazado 83949" d="M37.065,6.125H34.082V18.978h2.984Z" transform="translate(-0.828 -6.125)" fill="#a0abbe"/>
    <path id="Trazado_83950" data-name="Trazado 83950" d="M25.468,28.067H12.611v2.984H25.468Z" transform="translate(-12.611 5.916)" fill="#a0abbe"/>
    <path id="Trazado_83951" data-name="Trazado 83951" d="M27.658,38.5l-9.092,9.092,2.11,2.11,9.092-9.092Z" transform="translate(-9.342 11.642)" fill="#a0abbe"/>
    <path id="Trazado_83952" data-name="Trazado 83952" d="M20.675,12.327l-2.11,2.11,9.092,9.092,2.11-2.11Z" transform="translate(-9.343 -2.722)" fill="#a0abbe"/>
  </g>
</svg>
