<svg id="ic_sign_off2" xmlns="http://www.w3.org/2000/svg" width="37" height="37" viewBox="0 0 37 37">
  <g id="cerrar-sesion" transform="translate(9 9)">
    <path id="Trazado_84481" data-name="Trazado 84481" d="M8.537,11.641a2.328,2.328,0,0,1,0-4.656h3.88V2.134A2.136,2.136,0,0,0,10.283,0H2.134A2.136,2.136,0,0,0,0,2.134V16.492a2.136,2.136,0,0,0,2.134,2.134h8.149a2.136,2.136,0,0,0,2.134-2.134V11.641Z" fill="#959595"/>
    <path id="Trazado_84482" data-name="Trazado 84482" d="M16.688,14.7a.777.777,0,0,1-.479-.717V11.656H10.776a.776.776,0,1,1,0-1.552h5.433V7.776a.776.776,0,0,1,1.325-.549l3.1,3.1a.775.775,0,0,1,0,1.1l-3.1,3.1A.776.776,0,0,1,16.688,14.7Z" transform="translate(-2.239 -1.567)" fill="#959595"/>
  </g>
  <rect id="Rectángulo_10343" data-name="Rectángulo 10343" width="37" height="37" fill="none"/>
</svg>
