<svg xmlns="http://www.w3.org/2000/svg" width="131.082" height="115.856" viewBox="0 0 131.082 115.856">
  <g id="Grupo_18203" data-name="Grupo 18203" transform="translate(-139.581 -199.144)">
    <g id="Grupo_15737" data-name="Grupo 15737">
      <ellipse id="Elipse_6355" data-name="Elipse 6355" cx="55.567" cy="55.567" rx="55.567" ry="55.567" transform="translate(149.496 199.144)" fill="#fff"/>
      <ellipse id="Elipse_6356" data-name="Elipse 6356" cx="65.541" cy="7.124" rx="65.541" ry="7.124" transform="translate(139.581 300.752)" fill="#a0abbe"/>
      <g id="cronografo_2_" data-name="cronografo (2)" transform="translate(130.568 207.495)">
        <g id="Grupo_14623" data-name="Grupo 14623" transform="translate(66.543)">
          <g id="Grupo_14622" data-name="Grupo 14622" transform="translate(0)">
            <path id="Trazado_83978" data-name="Trazado 83978" d="M191.935,0V6.881h6.881v3.44a23.07,23.07,0,0,1,6.881,0V6.881h6.881V0Z" transform="translate(-191.935)" fill="#a0abbe"/>
          </g>
        </g>
        <g id="Grupo_14625" data-name="Grupo 14625" transform="translate(42.432 7.913)">
          <g id="Grupo_14624" data-name="Grupo 14624" transform="translate(0)">
            <path id="Trazado_83979" data-name="Trazado 83979" d="M100.26,63.861l2.408-2.408,2.752,2.752,4.817-4.817L99.916,49.067,95.1,53.884l2.752,2.752-3.1,3.1c-16.514-9.978-37.846-4.817-47.479,11.7a34.526,34.526,0,0,0,11.7,47.135,34.469,34.469,0,0,0,41.286-54.7Zm-23.4,49.2a24.084,24.084,0,0,1,0-48.167V88.977h24.084A23.935,23.935,0,0,1,76.864,113.061Z" transform="translate(-42.432 -49.067)" fill="#a0abbe"/>
          </g>
        </g>
      </g>
    </g>
  </g>
</svg>
