<svg id="ic_temrs" xmlns="http://www.w3.org/2000/svg" width="51" height="48" viewBox="0 0 51 48">
  <rect id="Rectángulo_10308" data-name="Rectángulo 10308" width="51" height="48" rx="4" fill="#1ba3a1"/>
  <g id="google-docs" transform="translate(-48 8.506)">
    <path id="Trazado_84475" data-name="Trazado 84475" d="M82.98,7.091,76.14.251a.856.856,0,0,0-.6-.251H63.565A2.568,2.568,0,0,0,61,2.565V26.62a2.568,2.568,0,0,0,2.565,2.565h17.1a2.568,2.568,0,0,0,2.565-2.565V7.7A.863.863,0,0,0,82.98,7.091Zm-6.59-4.171L80.312,6.84H77.246a.856.856,0,0,1-.855-.855Zm4.275,24.556h-17.1a.856.856,0,0,1-.855-.855V2.565a.856.856,0,0,1,.855-.855H74.681V5.985A2.568,2.568,0,0,0,77.246,8.55h4.275V26.62A.856.856,0,0,1,80.666,27.475Z" transform="translate(0 0)" fill="#fff"/>
    <path id="Trazado_84476" data-name="Trazado 84476" d="M162.115,212h-10.26a.855.855,0,1,0,0,1.71h10.26a.855.855,0,0,0,0-1.71Z" transform="translate(-84.87 -199.915)" fill="#fff"/>
    <path id="Trazado_84477" data-name="Trazado 84477" d="M162.115,272h-10.26a.855.855,0,1,0,0,1.71h10.26a.855.855,0,0,0,0-1.71Z" transform="translate(-84.87 -256.495)" fill="#fff"/>
    <path id="Trazado_84478" data-name="Trazado 84478" d="M162.115,332h-10.26a.855.855,0,1,0,0,1.71h10.26a.855.855,0,1,0,0-1.71Z" transform="translate(-84.87 -313.075)" fill="#fff"/>
    <path id="Trazado_84479" data-name="Trazado 84479" d="M158.7,392h-6.84a.855.855,0,1,0,0,1.71h6.84a.855.855,0,1,0,0-1.71Z" transform="translate(-84.87 -369.655)" fill="#fff"/>
  </g>
</svg>
